<?xml version="1.0" encoding="UTF-8" standalone="no"?>
<!-- Created with Inkscape (http://www.inkscape.org/) -->

<svg
   xmlns:dc="http://purl.org/dc/elements/1.1/"
   xmlns:cc="http://creativecommons.org/ns#"
   xmlns:rdf="http://www.w3.org/1999/02/22-rdf-syntax-ns#"
   xmlns:svg="http://www.w3.org/2000/svg"
   xmlns="http://www.w3.org/2000/svg"
   xmlns:sodipodi="http://sodipodi.sourceforge.net/DTD/sodipodi-0.dtd"
   xmlns:inkscape="http://www.inkscape.org/namespaces/inkscape"
   id="svg2"
   version="1.1"
   inkscape:version="0.47pre4 r22446"
   width="24"
   height="24"
   sodipodi:docname="ibeam.svg">
  <metadata
     id="metadata8">
    <rdf:RDF>
      <cc:Work
         rdf:about="">
        <dc:format>image/svg+xml</dc:format>
        <dc:type
           rdf:resource="http://purl.org/dc/dcmitype/StillImage" />
        <dc:title />
      </cc:Work>
    </rdf:RDF>
  </metadata>
  <defs
     id="defs6">
    <inkscape:perspective
       sodipodi:type="inkscape:persp3d"
       inkscape:vp_x="0 : 0.5 : 1"
       inkscape:vp_y="0 : 1000 : 0"
       inkscape:vp_z="1 : 0.5 : 1"
       inkscape:persp3d-origin="0.5 : 0.33333333 : 1"
       id="perspective10" />
  </defs>
  <sodipodi:namedview
     pagecolor="#ffffff"
     bordercolor="#092340"
     borderopacity="1"
     objecttolerance="10"
     gridtolerance="10"
     guidetolerance="10"
     inkscape:pageopacity="0"
     inkscape:pageshadow="2"
     inkscape:window-width="1280"
     inkscape:window-height="773"
     id="namedview4"
     showgrid="false"
     inkscape:zoom="9.8333333"
     inkscape:cx="-7.4745763"
     inkscape:cy="12"
     inkscape:window-x="0"
     inkscape:window-y="1"
     inkscape:window-maximized="1"
     inkscape:current-layer="svg2" />
  <path
     style="opacity:1;fill:#d5d5ff;fill-opacity:1;stroke:none"
     d="M 8.9375 5 C 7.857113 5 7 5.857113 7 6.9375 L 7 7.5 L 9.9375 7.5 C 10.530333 7.5 11 7.9696675 11 8.5625 L 11 15.4375 C 11 16.030333 10.530333 16.5 9.9375 16.5 L 7 16.5 L 7 17.0625 C 7 18.142887 7.857113 19 8.9375 19 L 11 19 C 11 18.447715 11.447715 18 12 18 C 12.552285 18 13 18.447715 13 19 L 15.0625 19 C 16.142887 19 17 18.142887 17 17.0625 L 17 16.5 L 14.0625 16.5 C 13.469667 16.5 13 16.030333 13 15.4375 L 13 8.5625 C 13 7.9696675 13.469667 7.5 14.0625 7.5 L 17 7.5 L 17 6.9375 C 17 5.857113 16.142887 5 15.0625 5 L 13 5 C 13 5.5522847 12.552285 6 12 6 C 11.447715 6 11 5.5522847 11 5 L 8.9375 5 z "
     id="rect2820" />
</svg>
