/* XPM */
static char * x_xpm[] = {
"48 48 449 2",
"  	c None",
". 	c #1D1D1D",
"+ 	c #1C1C1D",
"@ 	c #1F1E1D",
"# 	c #27251C",
"$ 	c #2D291B",
"% 	c #2F2B1B",
"& 	c #302A1B",
"* 	c #2C241C",
"= 	c #29231D",
"- 	c #22201D",
"; 	c #1B1C1D",
"> 	c #483E17",
", 	c #866E0F",
"' 	c #C8A107",
") 	c #F4C401",
"! 	c #FFD800",
"~ 	c #F49E04",
"{ 	c #E57C19",
"] 	c #D37C24",
"^ 	c #A26427",
"/ 	c #614223",
"( 	c #2B241E",
"_ 	c #181A1D",
": 	c #28241B",
"< 	c #92760D",
"[ 	c #E2B403",
"} 	c #FFD000",
"| 	c #FFCE00",
"1 	c #FFCF00",
"2 	c #F2B200",
"3 	c #DB7410",
"4 	c #EE8721",
"5 	c #F89129",
"6 	c #FF982F",
"7 	c #FB9631",
"8 	c #C3782D",
"9 	c #4E3822",
"0 	c #191B1D",
"a 	c #24231D",
"b 	c #A58B0E",
"c 	c #EAB600",
"d 	c #F5C200",
"e 	c #FAC700",
"f 	c #FDCB00",
"g 	c #D97B07",
"h 	c #E67F1A",
"i 	c #F28C26",
"j 	c #F8922C",
"k 	c #FD9731",
"l 	c #FF9932",
"m 	c #F89632",
"n 	c #5F4424",
"o 	c #191C1D",
"p 	c #1D1C1D",
"q 	c #1E1E1D",
"r 	c #7FA62E",
"s 	c #BDBA18",
"t 	c #E6AF00",
"u 	c #F2BF00",
"v 	c #F8C500",
"w 	c #FECC00",
"x 	c #E79D01",
"y 	c #DD7810",
"z 	c #ED8721",
"A 	c #F6902A",
"B 	c #FC962F",
"C 	c #FC9631",
"D 	c #FB9330",
"E 	c #F88F2F",
"F 	c #EB7A2A",
"G 	c #D6511F",
"H 	c #3E191A",
"I 	c #1A1D1D",
"J 	c #1A181C",
"K 	c #69882A",
"L 	c #9CD233",
"M 	c #AABC22",
"N 	c #DEAA00",
"O 	c #EEBB00",
"P 	c #F7C400",
"Q 	c #F6BC00",
"R 	c #DE7D06",
"S 	c #EC8219",
"T 	c #F18B25",
"U 	c #EC7E26",
"V 	c #E46F24",
"W 	c #D4571E",
"X 	c #C03717",
"Y 	c #AF1A12",
"Z 	c #A90D13",
"` 	c #B2161A",
" .	c #AF2020",
"..	c #311F1F",
"+.	c #1B1D1D",
"@.	c #1A191C",
"#.	c #3E4B23",
"$.	c #94C631",
"%.	c #97CA32",
"&.	c #A2C229",
"*.	c #D1AA06",
"=.	c #EAB700",
"-.	c #F6C100",
";.	c #E09502",
">.	c #A75B12",
",.	c #82501E",
"'.	c #5D3D20",
").	c #682919",
"!.	c #A41310",
"~.	c #AF1013",
"{.	c #B2181A",
"].	c #B91F20",
"^.	c #BD2425",
"/.	c #C02727",
"(.	c #C32A2A",
"_.	c #842626",
":.	c #1C1D1D",
"<.	c #1C1B1D",
"[.	c #6C8D29",
"}.	c #96CA30",
"|.	c #97CA31",
"1.	c #9AC72E",
"2.	c #C5AA0C",
"3.	c #E5B200",
"4.	c #DAAD03",
"5.	c #29241C",
"6.	c #24201D",
"7.	c #2E1C1C",
"8.	c #8A2121",
"9.	c #C62826",
"0.	c #C52C2C",
"a.	c #C62D2D",
"b.	c #C82F2F",
"c.	c #B42E2E",
"d.	c #3B2020",
"e.	c #2C331E",
"f.	c #7DA828",
"g.	c #93C62C",
"h.	c #94C72E",
"i.	c #94CB32",
"j.	c #B9AE13",
"k.	c #E3AF00",
"l.	c #5E4E14",
"m.	c #17181E",
"n.	c #151D1C",
"o.	c #5F1A36",
"p.	c #BD2739",
"q.	c #C83030",
"r.	c #CA3131",
"s.	c #CF3232",
"t.	c #5A2424",
"u.	c #36431C",
"v.	c #7FAF1E",
"w.	c #8BBE25",
"x.	c #8FC229",
"y.	c #90C62D",
"z.	c #ADB91C",
"A.	c #9E7D0A",
"B.	c #14161F",
"C.	c #1D1D1C",
"D.	c #2C1930",
"E.	c #790C74",
"F.	c #9A1C50",
"G.	c #BC2A39",
"H.	c #CF3330",
"I.	c #D23332",
"J.	c #7B2828",
"K.	c #201D1D",
"L.	c #334618",
"M.	c #73A60B",
"N.	c #7EAF16",
"O.	c #84B71E",
"P.	c #8ABE25",
"Q.	c #96BD24",
"R.	c #32301B",
"S.	c #231D23",
"T.	c #791C7A",
"U.	c #78127D",
"V.	c #811369",
"W.	c #9E1D4E",
"X.	c #CC3133",
"Y.	c #932C29",
"Z.	c #231E1E",
"`.	c #144624",
" +	c #1B9C25",
".+	c #5F9C08",
"++	c #74A50A",
"@+	c #7CAF16",
"#+	c #8AC01F",
"$+	c #2D351D",
"%+	c #211D21",
"&+	c #682366",
"*+	c #8B238B",
"=+	c #821C83",
"-+	c #7C157A",
";+	c #851469",
">+	c #7D213B",
",+	c #144223",
"'+	c #009833",
")+	c #349918",
"!+	c #659C06",
"~+	c #77AC0C",
"{+	c #485F18",
"]+	c #1B1A1D",
"^+	c #1C1E23",
"/+	c #472C78",
"(+	c #952B93",
"_+	c #8D278D",
":+	c #892389",
"<+	c #841C85",
"[+	c #57175A",
"}+	c #201D20",
"|+	c #173922",
"1+	c #028F31",
"2+	c #009832",
"3+	c #10972A",
"4+	c #439A11",
"5+	c #54810A",
"6+	c #1B161E",
"7+	c #1E1C19",
"8+	c #112C54",
"9+	c #2537A3",
"0+	c #902F95",
"a+	c #932D93",
"b+	c #902A90",
"c+	c #912791",
"d+	c #532153",
"e+	c #1E1D1E",
"f+	c #1A291F",
"g+	c #067F2E",
"h+	c #009831",
"i+	c #009731",
"j+	c #009631",
"k+	c #01962F",
"l+	c #1A9622",
"m+	c #143F22",
"n+	c #1E181D",
"o+	c #1E1B1A",
"p+	c #1B2129",
"q+	c #014CAD",
"r+	c #143BA2",
"s+	c #7E3197",
"t+	c #973197",
"u+	c #952F95",
"v+	c #922D92",
"w+	c #412141",
"x+	c #1C1D1C",
"y+	c #1E1A1C",
"z+	c #0D6328",
"A+	c #00952F",
"B+	c #00942E",
"C+	c #00932D",
"D+	c #00912B",
"E+	c #008F29",
"F+	c #018826",
"G+	c #096721",
"H+	c #1B271D",
"I+	c #1E1B1B",
"J+	c #1E1A1A",
"K+	c #1D1C1C",
"L+	c #172F29",
"M+	c #084D92",
"N+	c #0053BB",
"O+	c #0042A8",
"P+	c #6B3399",
"Q+	c #983197",
"R+	c #812D81",
"S+	c #2B1F2B",
"T+	c #1D1B1D",
"U+	c #192F20",
"V+	c #02892B",
"W+	c #008C26",
"X+	c #008A23",
"Y+	c #008620",
"Z+	c #00831F",
"`+	c #00801E",
" @	c #017722",
".@	c #0E5346",
"+@	c #096868",
"@@	c #017A78",
"#@	c #006B85",
"$@	c #005FC2",
"%@	c #0057BD",
"&@	c #0048AE",
"*@	c #4C369C",
"=@	c #963298",
"-@	c #973297",
";@	c #5C285C",
">@	c #191D19",
",@	c #1F171C",
"'@	c #104F21",
")@	c #008820",
"!@	c #008426",
"~@	c #008433",
"{@	c #008542",
"]@	c #00895D",
"^@	c #00907D",
"/@	c #009497",
"(@	c #009394",
"_@	c #008787",
":@	c #007376",
"<@	c #0164AD",
"[@	c #0060C6",
"}@	c #005AC0",
"|@	c #004FB5",
"1@	c #273BA1",
"2@	c #94339B",
"3@	c #7F2E7F",
"4@	c #221E22",
"5@	c #0F5535",
"6@	c #009881",
"7@	c #00958C",
"8@	c #00999B",
"9@	c #00989B",
"0@	c #009698",
"a@	c #009292",
"b@	c #008A8A",
"c@	c #007D7D",
"d@	c #01698B",
"e@	c #0063C8",
"f@	c #0062C8",
"g@	c #005DC3",
"h@	c #0053B9",
"i@	c #0343AD",
"j@	c #793088",
"k@	c #2D1F2D",
"l@	c #1A1D1A",
"m@	c #1C2021",
"n@	c #0F5959",
"o@	c #009A9A",
"p@	c #009898",
"q@	c #009797",
"r@	c #009494",
"s@	c #008E8E",
"t@	c #008484",
"u@	c #007377",
"v@	c #0164B7",
"w@	c #0064CC",
"x@	c #0063C9",
"y@	c #005EC4",
"z@	c #0059C2",
"A@	c #064191",
"B@	c #22202B",
"C@	c #154141",
"D@	c #048888",
"E@	c #019292",
"F@	c #008B8B",
"G@	c #007D7C",
"H@	c #016893",
"I@	c #0065D2",
"J@	c #0065CB",
"K@	c #025BBA",
"L@	c #0D407A",
"M@	c #1C1F22",
"N@	c #1E1919",
"O@	c #134747",
"P@	c #0B6565",
"Q@	c #076C6B",
"R@	c #066365",
"S@	c #0657A9",
"T@	c #0655A5",
"U@	c #094F97",
"V@	c #0F4071",
"W@	c #192735",
"X@	c #1F1914",
"Y@	c #1B2222",
"Z@	c #1A2629",
"`@	c #1A2633",
" #	c #1B232B",
".#	c #1E1B17",
"+#	c #1D1C1B",
"@#	c #1C1C1C",
"##	c #1B1B1B",
"$#	c #494949",
"%#	c #575757",
"&#	c #2F2F2F",
"*#	c #262626",
"=#	c #515151",
"-#	c #212121",
";#	c #1A1A1A",
">#	c #2C2C2C",
",#	c #4F4F4F",
"'#	c #545454",
")#	c #535353",
"!#	c #464646",
"~#	c #141414",
"{#	c #818181",
"]#	c #DBDBDB",
"^#	c #EAEAEA",
"/#	c #EBEBEB",
"(#	c #EEEEEE",
"_#	c #5F5F5F",
":#	c #3F3F3F",
"<#	c #DADADA",
"[#	c #D8D8D8",
"}#	c #2E2E2E",
"|#	c #303030",
"1#	c #A7A7A7",
"2#	c #E1E1E1",
"3#	c #E7E7E7",
"4#	c #7D7D7D",
"5#	c #D1D1D1",
"6#	c #C9C9C9",
"7#	c #CACACA",
"8#	c #CCCCCC",
"9#	c #404040",
"0#	c #DFDFDF",
"a#	c #5B5B5B",
"b#	c #EDEDED",
"c#	c #E5E5E5",
"d#	c #D2D2D2",
"e#	c #D3D3D3",
"f#	c #E2E2E2",
"g#	c #424242",
"h#	c #121212",
"i#	c #151515",
"j#	c #626262",
"k#	c #F8F8F8",
"l#	c #ACACAC",
"m#	c #0E0E0E",
"n#	c #111111",
"o#	c #484848",
"p#	c #191919",
"q#	c #616161",
"r#	c #F7F7F7",
"s#	c #AFAFAF",
"t#	c #171717",
"u#	c #474747",
"v#	c #E3E3E3",
"w#	c #585858",
"x#	c #313131",
"y#	c #323232",
"z#	c #232323",
"A#	c #161616",
"B#	c #646464",
"C#	c #5C5C5C",
"D#	c #3E3E3E",
"E#	c #D7D7D7",
"F#	c #D5D5D5",
"G#	c #5E5E5E",
"H#	c #ECECEC",
"I#	c #454545",
"J#	c #1E1E1E",
"K#	c #2A2A2A",
"L#	c #242424",
"M#	c #202020",
"N#	c #393939",
"O#	c #252525",
"P#	c #434343",
"              . . . . . . . . . . . . . . . . . . . . . . . . . . . . . . . . . .               ",
"          . . . . . . . . . . . . . . . . . . . . . . . . . . . . . . . . . . . . . .           ",
"        . . . . . . . . . . . . . . . . . . . . . . . . . . . . . . . . . . . . . . . .         ",
"      . . . . . . . . . . . . . . . . . . . . . . . . . . . . . . . . . . . . . . . . . .       ",
"    . . . . . . . . . . . . . . . . . + @ # $ % & * = - + . . . . . . . . . . . . . . . . .     ",
"  . . . . . . . . . . . . . . . . ; + > , ' ) ! ~ { ] ^ / ( _ . . . . . . . . . . . . . . . .   ",
"  . . . . . . . . . . . . . . . + : < [ } | 1 2 3 4 5 6 7 8 9 0 . . . . . . . . . . . . . . .   ",
". . . . . . . . . . . . . . . . a b c d e f f g h i j k k l m n o . . . . . . . . . . . . . . . ",
". . . . . . . . . . . . . . p q r s t u v w x y z A B C D E F G H I . . . . . . . . . . . . . . ",
". . . . . . . . . . . . . . J K L M N O P Q R S T U V W X Y Z `  ...+.. . . . . . . . . . . . . ",
". . . . . . . . . . . . . @.#.$.%.&.*.=.-.;.>.,.'.).!.~.{.].^./.(._.:.. . . . . . . . . . . . . ",
". . . . . . . . . . . . . <.[.}.|.1.2.3.4.5.6.@ + p 7.8.9.(.0.a.b.c.d.:.. . . . . . . . . . . . ",
". . . . . . . . . . . . p e.f.g.h.i.j.k.l.m.. . . . . n.o.p.q.r.r.s.t.:.. . . . . . . . . . . . ",
". . . . . . . . . . . . + u.v.w.x.y.z.A.B.. . . . . . C.D.E.F.G.H.I.J.K.. . . . . . . . . . . . ",
". . . . . . . . . . . . p L.M.N.O.P.Q.R.:.. . . . . . . S.T.U.V.W.X.Y.Z.. . . . . . . . . . . . ",
". . . . . . . . . . . . p `. +.+++@+#+$+p . . . . . . . %+&+*+=+-+;+>+Z.. . . . . . . . . . . . ",
". . . . . . . . . . . . p ,+'+'+)+!+~+{+]+. . . . . . . ^+/+(+_+:+<+[+}+. . . . . . . . . . . . ",
". . . . . . . . . . . . p |+1+2+'+3+4+5+6+. . . . . . 7+8+9+0+a+b+c+d+e+. . . . . . . . . . . . ",
". . . . . . . . . . . . . f+g+h+i+j+k+l+m+n+p . . . o+p+q+r+s+t+u+v+w+x+. . . . . . . . . . . . ",
". . . . . . . . . . . . . y+z+A+B+C+D+E+F+G+H+I+J+K+L+M+N+O+P+Q+t+R+S+. . . . . . . . . . . . . ",
". . . . . . . . . . . . . T+U+V+E+W+X+Y+Z+`+ @.@+@@@#@$@%@&@*@=@-@;@>@. . . . . . . . . . . . . ",
". . . . . . . . . . . . . . ,@'@)@!@~@{@]@^@/@(@_@:@<@[@}@|@1@2@3@4@x+. . . . . . . . . . . . . ",
". . . . . . . . . . . . . . . K+5@6@7@8@9@0@a@b@c@d@e@f@g@h@i@j@k@l@. . . . . . . . . . . . . . ",
". . . . . . . . . . . . . . . . m@n@o@p@q@r@s@t@u@v@w@x@y@z@A@B@x+. . . . . . . . . . . . . . . ",
". . . . . . . . . . . . . . . . . J+C@D@E@a@F@G@H@I@J@e@K@L@M@C.. . . . . . . . . . . . . . . . ",
". . . . . . . . . . . . . . . . . . N@. O@P@Q@R@S@T@U@V@W@X@C.. . . . . . . . . . . . . . . . . ",
". . . . . . . . . . . . . . . . . . . K+J+J+Y@Z@`@ #. .#+#. . . . . . . . . . . . . . . . . . . ",
". . . . . . . . . . . . . . . . . . . . . . . . C.. . . . . . . . . . . . . . . . . . . . . . . ",
". . . . . . . . @#@#@#@#@#@#@#@#@#@#. . . . . @#@#. . . . . . @#@#@#@#@#@#@#@#@#. . . . . . . . ",
". . . . . . . ##$#%#%#%#%#%#%#%#%#%#&#. . @#*#=#=#-#@#. . ;#>#,#'#)#)#)#)#)#'#!#;#. . . . . . . ",
". . . . . . ~#{#]#^#/#^#^#^#^#^#/#(#_#@#. ;#:#<#[#}###. . |#1#2#3#3#3#3#3#3#3#[#4#~#. . . . . . ",
". . . . . @#*#]#/#5#6#7#7#7#7#7#7#8#'#@#. ;#9#2#0#&###. @#a#b#c#d#e#e#e#e#d#[#/#]#*#@#. . . . . ",
". . . . . ##|#0#f#g#h#i#i#i#i#i#i#i###. . ;#9#2#0#&###. @#j#k#l#m#i#i#i#i#n#9#2#0#|###. . . . . ",
". . . . . ##&#0#f#o#p#. . . . . . . . . . ;#9#2#0#&###. @#q#r#s#t#. . . . ;#u#f#0#|###. . . . . ",
". . . . . ##&#0#f#o#p#. . . . . . . . . . ;#9#2#0#&###. @#q#r#s#t#. . . . ;#u#f#0#|###. . . . . ",
". . . . . ##&#0#f#o#p#. . . . . . . . . . ;#9#2#0#&###. @#q#r#s#t#. . . . ;#u#f#0#|###. . . . . ",
". . . . . ##&#0#f#o#p#. . . . . . . . . . ;#9#2#0#&###. @#q#r#s#t#. . . . ;#u#f#0#|###. . . . . ",
". . . . . ##&#0#f#!#t###############@#. . ;#9#2#0#&###. @#q#r#s#t#. . . . ;#u#f#0#|###. . . . . ",
". . . . . ##|#0#v#w#}#x#x#x#x#x#y#y#z#. . ;#9#2#0#&###. @#q#r#s#t#. . . . ;#u#f#0#|###. . . . . ",
". . . . . @#. 0#/#f#0#0#0#0#0#0#0#f#a#@#. ;#9#2#0#&###. @#q#r#s#t#. . . . ;#u#f#0#|###. . . . . ",
". . . . . . A#B#f#f#f#f#f#f#f#f#f#c#C#@#. ;#D#E#F#}###. @#G#H#1#t#. . . . ;#I#[#F#&###. . . . . ",
"  . . . . . J#A#K#!#I#I#I#I#I#I#I#!#K#. . @#L#!#I#M#. . . K#u#N#@#. . . . @#O#P#P#-#. . . . .   ",
"  . . . . . . . ##;#;#;#;#;#;#;#;#;#@#. . . @#;#;#. . . . @#p###. . . . . . @#;#;#. . . . . .   ",
"    . . . . . . . . . . . . . . . . . . . . . . . . . . . . . . . . . . . . . . . . . . . .     ",
"      . . . . . . . . . . . . . . . . . . . . . . . . . . . . . . . . . . . . . . . . . .       ",
"        . . . . . . . . . . . . . . . . . . . . . . . . . . . . . . . . . . . . . . . .         ",
"          . . . . . . . . . . . . . . . . . . . . . . . . . . . . . . . . . . . . . .           ",
"              . . . . . . . . . . . . . . . . . . . . . . . . . . . . . . . . . .               "};
