<?xml version="1.0" encoding="UTF-8" standalone="no"?>
<!-- Created with Inkscape (http://www.inkscape.org/) -->

<svg
   xmlns:dc="http://purl.org/dc/elements/1.1/"
   xmlns:cc="http://creativecommons.org/ns#"
   xmlns:rdf="http://www.w3.org/1999/02/22-rdf-syntax-ns#"
   xmlns:svg="http://www.w3.org/2000/svg"
   xmlns="http://www.w3.org/2000/svg"
   xmlns:sodipodi="http://sodipodi.sourceforge.net/DTD/sodipodi-0.dtd"
   xmlns:inkscape="http://www.inkscape.org/namespaces/inkscape"
   id="svg2"
   version="1.1"
   inkscape:version="0.92.3 (2405546, 2018-03-11)"
   width="25"
   height="25"
   sodipodi:docname="delete.svg"
   inkscape:export-filename="/home/olaf/src/cinelerra-gg/cin5/cinelerra-5.1/plugins/theme_neophyte/data/delete.png"
   inkscape:export-xdpi="96"
   inkscape:export-ydpi="96">
  <metadata
     id="metadata8">
    <rdf:RDF>
      <cc:Work
         rdf:about="">
        <dc:format>image/svg+xml</dc:format>
        <dc:type
           rdf:resource="http://purl.org/dc/dcmitype/StillImage" />
        <dc:title />
      </cc:Work>
    </rdf:RDF>
  </metadata>
  <defs
     id="defs6" />
  <sodipodi:namedview
     pagecolor="#ffffff"
     bordercolor="#666666"
     borderopacity="1"
     objecttolerance="10"
     gridtolerance="10"
     guidetolerance="10"
     inkscape:pageopacity="0"
     inkscape:pageshadow="2"
     inkscape:window-width="1280"
     inkscape:window-height="749"
     id="namedview4"
     showgrid="false"
     inkscape:zoom="32.789472"
     inkscape:cx="4.4181376"
     inkscape:cy="12.5"
     inkscape:window-x="0"
     inkscape:window-y="25"
     inkscape:window-maximized="1"
     inkscape:current-layer="svg2" />
  <path
     style="fill:#e6e4dd;fill-opacity:1;fill-rule:evenodd"
     d="M 11.030904,3.0004285 C 10.053838,3.0184025 9.1507756,3.5537095 8.6574741,4.422049 L 6.8966129,7.5198834 10.880962,9.8576669 12.99656,6.1224206 13.894363,7.7001423 12.124357,8.6460346 17.291762,9.2518508 20.051004,4.3941747 17.573357,5.7191657 16.441495,3.5690738 11.381974,3.0152896 c -0.05016,-0.00576 -0.103102,-0.0084 -0.15359,-0.011143 -0.0015,-6.48e-5 -0.0021,5.76e-5 -0.0035,0 -0.06444,-0.0036 -0.129891,-0.00503 -0.193822,-0.0036 z m 8.833593,5.8574561 -3.982526,2.3377804 2.119254,3.733386 -1.788294,0 0.07863,-2.031155 -3.099347,4.242568 L 15.953275,22 l 0.107886,-2.845103 2.399025,0.0799 3.000604,-4.177528 c 0.03042,-0.04238 0.05964,-0.08419 0.08777,-0.128224 0.572661,-0.897318 0.602974,-2.045241 0.07679,-2.97147 L 19.864497,8.8578846 z M 3.000028,9.5900662 5.3679673,11.106465 4.1007962,13.178504 6.1597136,17.907956 c 0.020869,0.048 0.044214,0.09634 0.067631,0.143091 0.4783108,0.952675 1.4417235,1.551705 2.4941031,1.551705 l 1.5359613,0 1.983944,0 0,-4.673701 -4.2403426,0 0.8941478,-1.574006 1.6913848,1.083407 L 8.5203099,9.5900662 3,9.5900662 z"
     id="path3842" />
  <path
     d="M 195.9017,-643.63116 82.633001,-756.90011 c -4.003072,-4.00283 -9.432031,-6.25146 -15.092655,-6.25146 l -263.023116,0 c -7.85856,0 -14.22949,6.37068 -14.22949,14.22949 l 0,472.74179 c 0,7.85881 6.37068,14.22924 14.22949,14.22924 l 383.40669,0 c 7.85881,0 14.22924,-6.37068 14.22924,-14.22924 l 0,-352.35822 c 0,-5.66087 -2.24864,-11.08983 -6.25146,-15.09265 z"
     style="fill:#ffff00;fill-rule:evenodd;display:none"
     id="path3858" />
  <rect
     style="display:inline;opacity:1;fill:#e6e4dd;fill-opacity:1;fill-rule:evenodd;stroke:none;stroke-width:3.84220719;stroke-linejoin:miter;stroke-miterlimit:4;stroke-dasharray:none;stroke-dashoffset:0;stroke-opacity:1"
     id="rect2166-7-7"
     width="37.240875"
     height="36.891399"
     x="-69.018684"
     y="-17.275707" />
</svg>
