<?xml version="1.0" encoding="UTF-8" standalone="no"?>
<!-- Created with Inkscape (http://www.inkscape.org/) -->

<svg
   xmlns:dc="http://purl.org/dc/elements/1.1/"
   xmlns:cc="http://creativecommons.org/ns#"
   xmlns:rdf="http://www.w3.org/1999/02/22-rdf-syntax-ns#"
   xmlns:svg="http://www.w3.org/2000/svg"
   xmlns="http://www.w3.org/2000/svg"
   xmlns:sodipodi="http://sodipodi.sourceforge.net/DTD/sodipodi-0.dtd"
   xmlns:inkscape="http://www.inkscape.org/namespaces/inkscape"
   id="svg2"
   version="1.1"
   inkscape:version="0.92.3 (2405546, 2018-03-11)"
   width="17"
   height="17"
   sodipodi:docname="in_checkedhi.svg"
   inkscape:export-filename="/home/olaf/src/cinelerra-gg/cin5/cinelerra-5.1/plugins/theme_neophyte/data/in_checkedhi.png"
   inkscape:export-xdpi="96"
   inkscape:export-ydpi="96">
  <metadata
     id="metadata8">
    <rdf:RDF>
      <cc:Work
         rdf:about="">
        <dc:format>image/svg+xml</dc:format>
        <dc:type
           rdf:resource="http://purl.org/dc/dcmitype/StillImage" />
        <dc:title></dc:title>
        <dc:date>2018-08-01</dc:date>
        <dc:creator>
          <cc:Agent>
            <dc:title>Olaf</dc:title>
          </cc:Agent>
        </dc:creator>
        <dc:description>2018-08-01: adapted</dc:description>
      </cc:Work>
    </rdf:RDF>
  </metadata>
  <defs
     id="defs6">
    <inkscape:perspective
       sodipodi:type="inkscape:persp3d"
       inkscape:vp_x="0 : 0.5 : 1"
       inkscape:vp_y="0 : 1000 : 0"
       inkscape:vp_z="1 : 0.5 : 1"
       inkscape:persp3d-origin="0.5 : 0.33333333 : 1"
       id="perspective10" />
  </defs>
  <sodipodi:namedview
     pagecolor="#ffffff"
     bordercolor="#666666"
     borderopacity="1"
     objecttolerance="10"
     gridtolerance="10"
     guidetolerance="10"
     inkscape:pageopacity="0"
     inkscape:pageshadow="2"
     inkscape:window-width="1280"
     inkscape:window-height="773"
     id="namedview4"
     showgrid="false"
     inkscape:zoom="15.166221"
     inkscape:cx="-14.337035"
     inkscape:cy="9"
     inkscape:window-x="0"
     inkscape:window-y="1"
     inkscape:window-maximized="1"
     inkscape:current-layer="layer99" />
  <g
     inkscape:groupmode="layer"
     id="layer12"
     inkscape:label="Layer 1"
     style="display:none"
     sodipodi:insensitive="true"
     transform="translate(0,-1)">
    <path
       style="fill:#ff0000;fill-opacity:1;stroke:#000000;stroke-width:0.5;stroke-miterlimit:4;stroke-dasharray:none"
       d="M 3.0554324,2 C 2.4665433,2 2,2.4250728 2,2.9616162 V 3.5838384 4.2626263 14.416162 15.038384 C 2,15.574928 2.4665433,16 3.0554324,16 H 14.944568 C 15.533457,16 16,15.574928 16,15.038384 v -1.30101 C 16,13.20083 15.533457,12.747475 14.944568,12.747475 H 5.5388027 V 5.2242424 H 14.944568 C 15.533457,5.2242424 16,4.7991696 16,4.2626263 V 2.9616162 C 16,2.4250728 15.533457,2 14.944568,2 Z"
       id="rect2818"
       inkscape:connector-curvature="0" />
  </g>
  <g
     inkscape:groupmode="layer"
     id="layer13"
     inkscape:label="Layer 2"
     style="display:none"
     sodipodi:insensitive="true"
     transform="translate(0,-1)">
    <path
       style="display:inline;fill:#fff200;fill-opacity:1;stroke:#0b1728;stroke-width:0.5;stroke-miterlimit:4;stroke-dasharray:none"
       d="m 3.0554325,2.0000002 c -0.5888893,0 -1.0554323,0.425072 -1.0554323,0.961616 v 0.622222 0.678788 10.1535358 0.622222 C 2.0000002,15.574928 2.4665432,16 3.0554325,16 H 14.944568 C 15.533457,16 16,15.574928 16,15.038384 v -1.30101 C 16,13.20083 15.533457,12.747475 14.944568,12.747475 H 5.5388027 V 5.2242422 H 14.944568 C 15.533457,5.2242422 16,4.7991692 16,4.2626262 v -1.30101 c 0,-0.536544 -0.466543,-0.961616 -1.055432,-0.961616 z"
       id="rect2818-2"
       inkscape:connector-curvature="0" />
  </g>
  <g
     inkscape:groupmode="layer"
     id="layer99"
     inkscape:label="Layer 3"
     transform="translate(0,-1)">
    <path
       style="opacity:1;fill:#fff200;fill-opacity:1;fill-rule:evenodd;stroke:none;stroke-width:0.68163037;stroke-linejoin:round;stroke-miterlimit:4;stroke-dasharray:none;stroke-dashoffset:0;stroke-opacity:1"
       d="M 5,1.0000003 V 3.8333343 15.166667 18 h 3 5 V 15.166667 H 8 V 3.8333343 h 5 V 1.0000003 H 8 Z"
       id="rect175300"
       inkscape:connector-curvature="0" />
  </g>
</svg>
