<?xml version="1.0" encoding="UTF-8" standalone="no"?>
<!-- Created with Inkscape (http://www.inkscape.org/) -->

<svg
   xmlns:dc="http://purl.org/dc/elements/1.1/"
   xmlns:cc="http://creativecommons.org/ns#"
   xmlns:rdf="http://www.w3.org/1999/02/22-rdf-syntax-ns#"
   xmlns:svg="http://www.w3.org/2000/svg"
   xmlns="http://www.w3.org/2000/svg"
   xmlns:xlink="http://www.w3.org/1999/xlink"
   xmlns:sodipodi="http://sodipodi.sourceforge.net/DTD/sodipodi-0.dtd"
   xmlns:inkscape="http://www.inkscape.org/namespaces/inkscape"
   id="svg2"
   version="1.1"
   inkscape:version="0.92.4 (5da689c313, 2019-01-14)"
   width="24"
   height="14"
   sodipodi:docname="keyframe3.svg"
   inkscape:export-filename="/home/olaf/Wiki/src/cinelerra-gg.org/cinelerra/cinelerra-5.1/plugins/theme_neophyte-olaf/data/keyframe3.png"
   inkscape:export-xdpi="96"
   inkscape:export-ydpi="96">
  <metadata
     id="metadata8">
    <rdf:RDF>
      <cc:Work
         rdf:about="">
        <dc:format>image/svg+xml</dc:format>
        <dc:type
           rdf:resource="http://purl.org/dc/dcmitype/StillImage" />
        <dc:title></dc:title>
      </cc:Work>
    </rdf:RDF>
  </metadata>
  <defs
     id="defs6">
    <linearGradient
       id="linearGradient7582">
      <stop
         offset="0"
         style="stop-color:white;stop-opacity:1"
         id="stop7584" />
      <stop
         offset="1"
         style="stop-color:white;stop-opacity:0"
         id="stop7586" />
    </linearGradient>
    <radialGradient
       inkscape:collect="always"
       xlink:href="#linearGradient7582"
       id="radialGradient27654"
       gradientUnits="userSpaceOnUse"
       gradientTransform="matrix(0,1.1034483,-1.1034484,0,-39.107357,-5.8455151)"
       cx="11.15625"
       cy="2.0625"
       fx="11.15625"
       fy="2.0625"
       r="0.90625" />
  </defs>
  <sodipodi:namedview
     pagecolor="#4b6285"
     bordercolor="#666666"
     borderopacity="1"
     objecttolerance="10"
     gridtolerance="10"
     guidetolerance="10"
     inkscape:pageopacity="0"
     inkscape:pageshadow="2"
     inkscape:window-width="2494"
     inkscape:window-height="1407"
     id="namedview4"
     showgrid="false"
     inkscape:zoom="16.9375"
     inkscape:cx="12"
     inkscape:cy="7"
     inkscape:window-x="2"
     inkscape:window-y="4"
     inkscape:window-maximized="0"
     inkscape:current-layer="layer2"
     inkscape:showpageshadow="false">
    <sodipodi:guide
       position="26.479705,-2.7158672"
       orientation="0,24"
       id="guide822"
       inkscape:locked="false" />
    <sodipodi:guide
       position="24,0"
       orientation="-14,0"
       id="guide824"
       inkscape:locked="false" />
    <sodipodi:guide
       position="29.402214,21.284133"
       orientation="0,-24"
       id="guide826"
       inkscape:locked="false" />
    <sodipodi:guide
       position="0,14"
       orientation="14,0"
       id="guide828"
       inkscape:locked="false" />
  </sodipodi:namedview>
  <path
     d="m -41.383219,7.46483 a 1,1 0 1 1 0,-2 1,1 0 0 1 0,2 z"
     id="use6173"
     style="fill:url(#radialGradient27654);fill-opacity:1;fill-rule:evenodd;stroke:none;stroke-width:1;marker:none;visibility:visible;display:inline;overflow:visible;enable-background:accumulate" />
  <g
     inkscape:groupmode="layer"
     id="layer1"
     inkscape:label="Layer 1"
     sodipodi:insensitive="true"
     style="display:none">
    <path
       style="fill:#ffff00;stroke:#000000;stroke-width:1;stroke-linecap:round;stroke-linejoin:miter;stroke-miterlimit:4;stroke-dasharray:none;stroke-opacity:1"
       d="M 17.726168,1.8906292 C 15.55131,1.8959392 13.644604,3.145976 12.771739,4.9966719 H 11.609354 L 10.446968,6.1590572 9.284583,4.9966719 H 8.5223632 L 7.7601434,6.5401669 H 6.9788682 L 6.1975929,4.9966719 5.4353732,5.0157269 4.272988,6.1590567 3.1106027,5.0157269 H 2.3483829 l -1.54349507,1.924605 v 1.9436609 l 1.16238517,0.76222 10.804466,-0.019052 c 0.888417,1.8286942 2.868691,3.0732042 5.030651,3.0679342 3.013351,-0.0074 5.400078,-2.311261 5.392705,-5.3355386 -0.0074,-3.0242791 -2.455576,-5.4762732 -5.468927,-5.4689272 z m 2.362882,3.8492071 c 0.851977,-0.00207 1.560473,0.6915166 1.56255,1.5434951 0.0021,0.8519784 -0.691517,1.5414178 -1.543495,1.5434954 -0.851978,0.00211 -1.541418,-0.691517 -1.543495,-1.5434954 -0.0021,-0.8519785 0.67246,-1.5414182 1.52444,-1.5434951 z"
       id="path6767"
       sodipodi:nodetypes="cccccccccccccccccssccsssc"
       inkscape:connector-curvature="0" />
  </g>
  <g
     inkscape:groupmode="layer"
     id="layer2"
     inkscape:label="Layer 2">
    <path
       sodipodi:nodetypes="cccccccccccccccccssccsssc"
       id="path820"
       d="m 17.42128,1.5977698 c -2.174858,0.00531 -4.081564,1.255347 -4.954429,3.106043 H 11.304466 L 10.14208,5.8661978 8.979695,4.7038128 H 8.217475 L 7.455256,6.2473078 H 6.67398 L 5.892705,4.7038128 5.130485,4.7228628 3.9681,5.8661918 2.805715,4.7228628 H 2.043495 L 0.5,6.6474678 v 1.94366 l 1.162385,0.76222 10.804466,-0.01905 c 0.888417,1.8286942 2.868691,3.0732052 5.030651,3.0679352 3.013351,-0.0074 5.400078,-2.311261 5.392705,-5.3355392 -0.0074,-3.024279 -2.455576,-5.476273 -5.468927,-5.468927 z m 2.362882,3.849207 c 0.851977,-0.0021 1.560473,0.691517 1.56255,1.543495 0.0021,0.851978 -0.691517,1.541418 -1.543495,1.543495 -0.851978,0.0021 -1.541418,-0.691517 -1.543495,-1.543495 -0.0021,-0.851978 0.67246,-1.541418 1.52444,-1.543495 z"
       style="fill:#ffcc00;stroke:#000000;stroke-width:1;stroke-linecap:round;stroke-linejoin:miter;stroke-miterlimit:4;stroke-dasharray:none;stroke-opacity:1"
       inkscape:connector-curvature="0" />
  </g>
</svg>
