<?xml version="1.0" encoding="UTF-8" standalone="no"?>
<!-- Created with Inkscape (http://www.inkscape.org/) -->

<svg
   xmlns:dc="http://purl.org/dc/elements/1.1/"
   xmlns:cc="http://creativecommons.org/ns#"
   xmlns:rdf="http://www.w3.org/1999/02/22-rdf-syntax-ns#"
   xmlns:svg="http://www.w3.org/2000/svg"
   xmlns="http://www.w3.org/2000/svg"
   xmlns:xlink="http://www.w3.org/1999/xlink"
   xmlns:sodipodi="http://sodipodi.sourceforge.net/DTD/sodipodi-0.dtd"
   xmlns:inkscape="http://www.inkscape.org/namespaces/inkscape"
   id="svg2"
   version="1.1"
   inkscape:version="0.92.3 (2405546, 2018-03-11)"
   width="24"
   height="24"
   sodipodi:docname="locklabels_unlocked.svg"
   inkscape:export-filename="/home/olaf/src/cinelerra-gg/cin5/cinelerra-5.1/plugins/theme_neophyte/data/locklabels_unlocked.png"
   inkscape:export-xdpi="96"
   inkscape:export-ydpi="96">
  <metadata
     id="metadata8">
    <rdf:RDF>
      <cc:Work
         rdf:about="">
        <dc:format>image/svg+xml</dc:format>
        <dc:type
           rdf:resource="http://purl.org/dc/dcmitype/StillImage" />
        <dc:title />
        <dc:date>2018-08-01</dc:date>
        <dc:creator>
          <cc:Agent>
            <dc:title>Olaf</dc:title>
          </cc:Agent>
        </dc:creator>
        <dc:description>2018-08-01: adapted. </dc:description>
      </cc:Work>
    </rdf:RDF>
  </metadata>
  <defs
     id="defs6">
    <linearGradient
       id="linearGradient1817-9">
      <stop
         style="stop-color:#404040;stop-opacity:1"
         offset="0"
         id="stop1813" />
      <stop
         style="stop-color:#151515;stop-opacity:1"
         offset="1"
         id="stop1815" />
    </linearGradient>
    <linearGradient
       inkscape:collect="always"
       xlink:href="#linearGradient1817-9"
       id="linearGradient1811-8-4"
       x1="44.737286"
       y1="1.0084742"
       x2="44.737286"
       y2="18.728813"
       gradientUnits="userSpaceOnUse"
       gradientTransform="matrix(0.88538098,0,0,1.3541119,-27.954685,-1.2657083)" />
  </defs>
  <sodipodi:namedview
     pagecolor="#ffffff"
     bordercolor="#666666"
     borderopacity="1"
     objecttolerance="10"
     gridtolerance="10"
     guidetolerance="10"
     inkscape:pageopacity="0"
     inkscape:pageshadow="2"
     inkscape:window-width="1280"
     inkscape:window-height="773"
     id="namedview4"
     showgrid="false"
     inkscape:zoom="9.8333333"
     inkscape:cx="-30.143699"
     inkscape:cy="6.6101695"
     inkscape:window-x="0"
     inkscape:window-y="1"
     inkscape:window-maximized="1"
     inkscape:current-layer="layer2" />
  <g
     inkscape:groupmode="layer"
     id="layer1"
     inkscape:label="Layer 1"
     sodipodi:insensitive="true"
     style="display:none">
    <rect
       style="fill:#4d4d4d;fill-opacity:1;stroke:none"
       id="rect3302"
       width="24"
       height="24"
       x="0"
       y="0" />
    <g
       transform="matrix(-1.0322146,0,0,0.98484715,24.160808,-2.9112566)"
       id="g3607">
      <path
         style="fill:none;stroke:#cccccc;stroke-width:1.64394927;stroke-linejoin:round;stroke-miterlimit:4;stroke-dasharray:none;stroke-opacity:1"
         d="m 10.403929,10.54929 c 0.0085,1.323717 1.154559,2.640853 1.859622,2.659292 l 5.49637,0.006 V 7.8585308 H 12.27542 c -0.955557,0.037504 -1.879996,1.3673915 -1.871491,2.6907602 z"
         id="rect2818"
         sodipodi:nodetypes="cccccz"
         inkscape:connector-curvature="0" />
      <path
         style="fill:#cccccc;fill-opacity:1;stroke:none"
         d="m 5.96875,10 v 1 6.233475 H 5 L 7.0625,19.202225 9,17.233475 H 8 V 11 h 2.25 V 10 H 8 Z"
         id="rect2825"
         sodipodi:nodetypes="cccccccccccc"
         inkscape:connector-curvature="0" />
    </g>
    <g
       id="g2915"
       transform="translate(-0.44067669,-0.08345938)">
      <rect
         ry="0.81355929"
         y="16.628881"
         x="8.4406767"
         height="4.4545779"
         width="6.1738887"
         id="rect3456"
         style="fill:#cccccc;fill-opacity:1;stroke:none" />
      <path
         sodipodi:nodetypes="cscccccsccsc"
         id="path3458"
         d="m 11.536983,13.021186 c -1.232158,0 -2.2417292,0.969008 -2.3054384,2.185364 -0.00129,0.02422 5.141e-4,0.04764 0,0.07205 v 4.298684 H 10.000023 V 15.2786 15.20655 c 0.06364,-0.790427 0.730189,-1.416884 1.53696,-1.416884 0.805888,0 1.448068,0.627689 1.512944,1.416884 h 0.792495 c -5.07e-4,-0.02408 0.0012,0.0239 0,0 -0.06322,-1.216816 -1.07295,-2.185364 -2.305439,-2.185364 z"
         style="fill:#cccccc;fill-opacity:1;stroke:none"
         inkscape:connector-curvature="0" />
    </g>
    <path
       id="path3473"
       d="m 41.333593,12.512712 c -1.232158,0 -2.241729,0.969008 -2.305438,2.185364 -0.0013,0.02422 5.14e-4,0.04764 0,0.07205 v 4.298684 h 0.768478 v -4.298684 -0.07205 c 0.06364,-0.790427 0.730189,-1.416884 1.53696,-1.416884 0.805888,0 1.448068,0.627689 1.512944,1.416884 v 4.370729 h 0.792495 v -4.298683 c -5.07e-4,-0.02408 0.0012,-0.04815 0,-0.07205 -0.06322,-1.216816 -1.07295,-2.185364 -2.305439,-2.185364 z"
       style="fill:#cccccc;fill-opacity:1;stroke:none"
       inkscape:connector-curvature="0" />
  </g>
  <g
     inkscape:groupmode="layer"
     id="layer2"
     inkscape:label="Layer 2">
    <rect
       style="fill:url(#linearGradient1811-8-4);fill-opacity:1;stroke:#141414;stroke-width:0.98009574;stroke-miterlimit:4;stroke-dasharray:none;stroke-opacity:1"
       id="rect3597-9-0"
       width="23.019905"
       height="23.019905"
       x="0.49004745"
       y="0.49004745" />
    <rect
       y="1.250083"
       x="0.75011826"
       height="21.499836"
       width="22.499836"
       id="rect3597-5-7-9-4-8-9-8-8"
       style="fill:none;fill-opacity:1;stroke:#262626;stroke-width:0.50016463;stroke-miterlimit:4;stroke-dasharray:none;stroke-opacity:1" />
    <g
       transform="matrix(-1.0322146,0,0,0.98484715,24.170804,-3.4205953)"
       id="g3607-1-5">
      <path
         inkscape:connector-curvature="0"
         style="fill:none;stroke:#cccccc;stroke-width:1.64394927;stroke-linejoin:round;stroke-miterlimit:4;stroke-dasharray:none;stroke-opacity:1"
         d="m 10.403929,10.54929 c 0.0085,1.323717 1.154559,2.640853 1.859622,2.659292 l 5.49637,0.006 V 7.8585308 H 12.27542 c -0.955557,0.037504 -1.879996,1.3673915 -1.871491,2.6907602 z"
         id="rect2818-9-6"
         sodipodi:nodetypes="cccccz" />
      <path
         inkscape:connector-curvature="0"
         style="fill:#cccccc;fill-opacity:1;stroke:none"
         d="m 5.96875,10 v 1 6.233475 H 5 L 7.0625,19.202225 9,17.233475 H 8 V 11 h 2.25 V 10 H 8 Z"
         id="rect2825-6-6"
         sodipodi:nodetypes="cccccccccccc" />
    </g>
    <g
       id="g2915-9-4"
       transform="translate(-0.4306746,-0.59279715)">
      <rect
         ry="0.81355929"
         y="16.628881"
         x="8.4406767"
         height="4.4545779"
         width="6.1738887"
         id="rect3456-3-0"
         style="fill:#cccccc;fill-opacity:1;stroke:none" />
      <path
         inkscape:connector-curvature="0"
         sodipodi:nodetypes="cscccccsccsc"
         id="path3458-3-0"
         d="m 11.536983,13.021186 c -1.232158,0 -2.2417292,0.969008 -2.3054384,2.185364 -0.00129,0.02422 5.141e-4,0.04764 0,0.07205 v 4.298684 H 10.000023 V 15.2786 15.20655 c 0.06364,-0.790427 0.730189,-1.416884 1.53696,-1.416884 0.805888,0 1.448068,0.627689 1.512944,1.416884 h 0.792495 c -5.07e-4,-0.02408 0.0012,0.0239 0,0 -0.06322,-1.216816 -1.07295,-2.185364 -2.305439,-2.185364 z"
         style="fill:#cccccc;fill-opacity:1;stroke:none" />
    </g>
    <g
       id="g2915-3-9"
       transform="translate(-0.4306746,-0.59279715)"
       style="fill:#27ae60;fill-opacity:1">
      <rect
         ry="0.81355929"
         y="16.628881"
         x="8.4406767"
         height="4.4545779"
         width="6.1738887"
         id="rect3456-1-0"
         style="fill:#27ae60;fill-opacity:1;stroke:none" />
      <path
         inkscape:connector-curvature="0"
         sodipodi:nodetypes="cscccccsccsc"
         id="path3458-8-8"
         d="m 11.536983,13.021186 c -1.232158,0 -2.2417292,0.969008 -2.3054384,2.185364 -0.00129,0.02422 5.141e-4,0.04764 0,0.07205 v 4.298684 H 10.000023 V 15.2786 15.20655 c 0.06364,-0.790427 0.730189,-1.416884 1.53696,-1.416884 0.805888,0 1.448068,0.627689 1.512944,1.416884 h 0.792495 c -5.07e-4,-0.02408 0.0012,0.0239 0,0 -0.06322,-1.216816 -1.07295,-2.185364 -2.305439,-2.185364 z"
         style="fill:#27ae60;fill-opacity:1;stroke:none" />
    </g>
    <text
       xml:space="preserve"
       style="font-style:normal;font-variant:normal;font-weight:normal;font-stretch:normal;font-size:10.66666698px;line-height:25px;font-family:Andika;-inkscape-font-specification:'Andika, Normal';font-variant-ligatures:normal;font-variant-caps:normal;font-variant-numeric:normal;font-feature-settings:normal;text-align:start;letter-spacing:0px;word-spacing:0px;writing-mode:lr-tb;text-anchor:start;fill:#000000;fill-opacity:1;stroke:none"
       x="-74.74453"
       y="-20.092426"
       id="text1473-8-6"><tspan
         sodipodi:role="line"
         id="tspan1471-9-5"
         x="-74.74453"
         y="-20.092426">see: recordpatch_up</tspan></text>
  </g>
</svg>
