<?xml version="1.0" encoding="UTF-8" standalone="no"?>
<!-- Created with Inkscape (http://www.inkscape.org/) -->

<svg
   xmlns:dc="http://purl.org/dc/elements/1.1/"
   xmlns:cc="http://creativecommons.org/ns#"
   xmlns:rdf="http://www.w3.org/1999/02/22-rdf-syntax-ns#"
   xmlns:svg="http://www.w3.org/2000/svg"
   xmlns="http://www.w3.org/2000/svg"
   xmlns:sodipodi="http://sodipodi.sourceforge.net/DTD/sodipodi-0.dtd"
   xmlns:inkscape="http://www.inkscape.org/namespaces/inkscape"
   id="svg2"
   version="1.1"
   inkscape:version="0.92.3 (2405546, 2018-03-11)"
   width="256"
   height="26"
   sodipodi:docname="menubar_bg.svg"
   inkscape:export-filename="/home/olaf/src/cinelerra-gg/cin5/cinelerra-5.1/plugins/theme_neophyte/data/menubar_bg.png"
   inkscape:export-xdpi="96"
   inkscape:export-ydpi="96">
  <metadata
     id="metadata8">
    <rdf:RDF>
      <cc:Work
         rdf:about="">
        <dc:format>image/svg+xml</dc:format>
        <dc:type
           rdf:resource="http://purl.org/dc/dcmitype/StillImage" />
        <dc:title />
        <dc:date>2018-08-01</dc:date>
        <dc:creator>
          <cc:Agent>
            <dc:title>Olaf</dc:title>
          </cc:Agent>
        </dc:creator>
        <dc:description>2018-08-01: adapted
See: </dc:description>
      </cc:Work>
    </rdf:RDF>
  </metadata>
  <defs
     id="defs6" />
  <sodipodi:namedview
     pagecolor="#ffffff"
     bordercolor="#ff3ff6"
     borderopacity="1"
     objecttolerance="10"
     gridtolerance="10"
     guidetolerance="10"
     inkscape:pageopacity="0"
     inkscape:pageshadow="2"
     inkscape:window-width="1316"
     inkscape:window-height="744"
     id="namedview4"
     showgrid="false"
     inkscape:zoom="3.1621094"
     inkscape:cx="8.6709459"
     inkscape:cy="-9.1135182"
     inkscape:window-x="50"
     inkscape:window-y="24"
     inkscape:window-maximized="1"
     inkscape:current-layer="layer83"
     showborder="true"
     inkscape:showpageshadow="false"
     borderlayer="true"
     showguides="true"
     inkscape:guide-bbox="true">
    <inkscape:grid
       type="xygrid"
       id="grid129659" />
    <sodipodi:guide
       position="-21.504632,-100.24954"
       orientation="0,1"
       id="guide1553"
       inkscape:locked="false" />
  </sodipodi:namedview>
  <g
     inkscape:groupmode="layer"
     id="layer82"
     inkscape:label="Layer 1"
     sodipodi:insensitive="true"
     style="display:none">
    <rect
       style="fill:#4d4d4d;fill-opacity:1;stroke:none"
       id="rect3594"
       width="256"
       height="26"
       x="0"
       y="26" />
    <rect
       y="51"
       x="0"
       height="1"
       width="256"
       id="rect3592"
       style="fill:#333333;fill-opacity:1;stroke:none" />
    <rect
       y="0"
       x="0"
       height="26"
       width="256"
       id="rect2825"
       style="fill:#4d4d4d;fill-opacity:1;stroke:none" />
    <rect
       style="fill:#666666;fill-opacity:1;stroke:none"
       id="rect2818"
       width="256"
       height="1"
       x="0"
       y="26" />
    <rect
       y="0"
       x="0"
       height="1"
       width="256"
       id="rect2827"
       style="fill:#666666;fill-opacity:1;stroke:none" />
    <rect
       style="fill:#333333;fill-opacity:1;stroke:none"
       id="rect2829"
       width="256"
       height="1"
       x="0"
       y="25" />
    <path
       style="opacity:0.39175259;fill:#80ffb3"
       d="m 215.94898,48.917883 c -0.54803,-0.10363 -0.64874,-0.17494 -0.78685,-0.55726 -0.15816,-0.43781 0.0733,-0.74533 0.63801,-0.84756 0.96577,-0.17484 4.25667,-1.84107 4.98671,-2.52484 l 0.47337,-0.44338 0.0165,-5.012136 c 0.0172,-5.192947 0.0692,-6.414984 0.2899,-6.815708 0.14657,-0.266017 1.00548,-1.034507 2.61688,-2.341415 1.18248,-0.959033 1.26049,-1.015875 2.90876,-2.119403 0.60629,-0.405911 1.36015,-0.916188 1.67527,-1.133947 0.31511,-0.217762 0.80273,-0.45524 1.08359,-0.527731 0.28086,-0.0725 0.56056,-0.221773 0.62154,-0.331738 0.12101,-0.218184 -0.13627,-0.355711 -1.58185,-0.845593 -1.24196,-0.420875 -2.89688,-1.058933 -3.8786,-1.495414 -1.5701,-0.698065 -2.01975,-1.185205 -1.75935,-1.906029 0.11062,-0.306228 0.0875,-1.582537 -0.0463,-2.555626 -0.0191,-0.139387 -0.3667,-0.178099 -2.04293,-0.227553 -1.11091,-0.03278 -2.08729,-0.100038 -2.16974,-0.14948 -0.0825,-0.04944 -0.52629,-0.129754 -0.9863,-0.178484 -0.46001,-0.04873 -0.99304,-0.143222 -1.18449,-0.209986 -0.19147,-0.06676 -0.69871,-0.210427 -1.12721,-0.319251 -0.53626,-0.136188 -0.903,-0.310657 -1.1766,-0.559746 l -0.39749,-0.361883 -0.0857,-2.095146 c -0.0849,-2.076031 -0.0379,-2.836714 0.33516,-5.4162394 0.16984,-1.174597 0.36493,-1.993077 0.60756,-2.548943 0.27022,-0.6190879 0.32933,-1.2400479 0.13869,-1.4569759 -0.29145,-0.33166 -0.55711,-1.183677 -0.55711,-1.786768 0,-0.524338 0.0362,-0.605125 0.38806,-0.864053 0.33291,-0.245039 0.50673,-0.2856319 1.22307,-0.2856319 0.67822,0 0.90492,0.0473 1.20742,0.2519409 0.20482,0.138567 0.38982,0.289732 0.41108,0.335921 0.0587,0.127513 7.32139,0.09921 9.82433,-0.03828 1.24067,-0.06816 7.0373,-0.129104 13.257,-0.139392 l 11.05235,-0.01828 1e-5,0.251941 1e-5,0.251941 h -2.708 c -3.99436,0 -8.74417,0.134204 -8.45121,0.238785 0.22463,0.08018 0.2519,0.17224 0.2519,0.850162 v 0.760242 l -1.76868,-0.02099 -1.7687,-0.02099 -0.0926,-0.42772 c -0.14779,-0.682737 -0.0635,-1.075841 0.26494,-1.235324 0.24448,-0.118722 -0.018,-0.141131 -1.66973,-0.142521 l -1.95983,-0.0016 0.0864,0.643848 c 0.0476,0.354118 0.094,0.795015 0.10324,0.979772 l 0.0168,0.335921 h -1.74052 -1.74053 v -0.688767 c 0,-0.378821 -0.0392,-0.72734 -0.0871,-0.774484 -0.0479,-0.04715 -0.0871,-0.160148 -0.0871,-0.251117 0,-0.137188 0.15338,-0.154424 0.89927,-0.101062 0.49461,0.03539 1.00371,0.01904 1.13135,-0.03631 0.13984,-0.06065 -1.01302,-0.07444 -2.90088,-0.03469 -1.72313,0.03627 -3.18517,0.113137 -3.24899,0.170794 -0.0727,0.06569 0.17819,0.09579 0.67197,0.08063 0.4334,-0.01332 0.82964,0.02159 0.88052,0.07757 0.0509,0.05598 0.0618,0.404105 0.0242,0.773618 l -0.0683,0.671843 -0.69621,0.02919 c -0.38291,0.01605 -1.19226,-0.0092 -1.79855,-0.05598 l -1.10233,-0.08517 v -0.756023 -0.756022 l -0.9863,5e-6 -0.9863,7e-6 v 0.812003 0.812003 l -0.92828,0.0356 c -0.51056,0.01958 -1.25463,0.003 -1.6535,-0.0369 l -0.72522,-0.07252 v -0.697035 -0.697036 l 1.42143,0.02339 1.42144,0.02339 -1.10234,-0.08872 c -0.60628,-0.04879 -1.50772,-0.09436 -2.0032,-0.101258 l -0.90085,-0.01253 0.0183,0.979771 0.0183,0.97977 h 4.941 4.941 l 0.0265,0.839802 c 0.0678,2.1534059 0.13404,2.9234389 0.29954,3.4830003 0.23251,0.786105 0.43591,1.936461 0.55225,3.123451 0.0513,0.523479 0.0978,0.970093 0.10334,0.99248 0.005,0.02239 0.17981,0.0075 0.38722,-0.0333 0.20741,-0.04071 0.54681,-0.102327 0.75423,-0.136932 l 0.37711,-0.06293 0.022,-1.527389 c 0.0122,-0.840065 0.0274,-2.646396 0.0338,-4.0140684 0.007,-1.367674 0.0383,-2.5123829 0.0709,-2.5437989 0.0533,-0.05142 17.3166,-0.249416 19.91517,-0.228411 0.58858,0.0047 1.10744,0.04463 1.153,0.08861 0.0456,0.04398 0.0963,1.6283849 0.11277,3.5209099 0.0165,1.8925254 0.0661,4.8423064 0.11049,6.5550684 0.0551,2.130682 0.042,3.151345 -0.0416,3.232005 -0.0785,0.07572 -0.92466,0.111378 -2.36567,0.09967 -1.79358,-0.01456 -2.21446,0.0099 -2.09862,0.121608 0.0797,0.0769 0.14489,0.406881 0.14489,0.733285 v 0.593461 l 1.82756,-0.01288 c 1.2905,-0.0091 1.69116,-0.0401 1.36341,-0.105524 -0.25527,-0.05096 -0.81659,-0.09555 -1.24738,-0.09911 -0.65185,-0.0053 -0.78323,-0.03784 -0.78323,-0.193591 0,-0.102925 -0.0847,-0.277407 -0.18813,-0.387737 -0.10345,-0.110331 -0.15732,-0.278061 -0.11967,-0.372732 0.0558,-0.14038 0.30317,-0.172131 1.34092,-0.172131 0.69986,0 1.41035,0.05059 1.57885,0.112401 0.27827,0.102097 0.30334,0.160131 0.27323,0.632662 -0.029,0.454377 4.6e-4,0.532238 0.23195,0.614888 0.41367,0.147674 0.26629,0.46226 -0.2666,0.569105 -0.284,0.05694 -0.49984,0.04825 -0.57377,-0.0231 -0.12712,-0.122677 -2.96223,-0.159114 -3.40812,-0.0438 -0.1436,0.03713 -0.26108,0.144134 -0.26108,0.237778 0,0.308454 -1.00619,1.651214 -1.4695,1.961048 -0.37705,0.252155 -0.51279,0.286889 -0.79783,0.204157 -0.34581,-0.100372 -1.23871,-0.488889 -1.56184,-0.679581 -0.0957,-0.0565 -0.7284,-0.43152 -1.40593,-0.833393 -0.67753,-0.401873 -1.60379,-0.87487 -2.05835,-1.051104 -0.45455,-0.176236 -0.91841,-0.399299 -1.0308,-0.495695 -0.11239,-0.09639 -0.78797,-0.461855 -1.50128,-0.812133 -0.95169,-0.46733 -1.49225,-0.661557 -2.03062,-0.72961 -0.40352,-0.051 -0.89032,-0.143183 -1.08179,-0.204835 -0.19145,-0.06165 -0.72811,-0.141939 -1.19257,-0.178418 -1.19413,-0.09379 -1.23572,0.09082 -0.21827,0.968464 0.42496,0.366565 0.77266,0.715722 0.77266,0.775904 0,0.192783 0.97048,1.209497 1.45043,1.519528 0.25529,0.1649 0.56858,0.38659 0.69621,0.492645 0.12765,0.106053 0.64779,0.351637 1.15587,0.54574 0.7458,0.284916 1.09234,0.505681 1.79854,1.145797 0.49723,0.450695 1.02197,1.054693 1.21587,1.399517 0.30043,0.534304 0.34193,0.722483 0.3481,1.578316 0.008,0.981835 -0.21104,1.712362 -0.64193,2.150071 -0.0898,0.09124 -0.34848,0.400197 -0.57479,0.686555 -0.3954,0.500298 -0.40838,0.546248 -0.33216,1.175423 0.0807,0.6662 0.51104,2.350714 0.91101,3.566087 0.1216,0.369515 0.31145,0.974172 0.42187,1.343687 0.11044,0.369512 0.27994,0.890504 0.37668,1.157757 0.17198,0.47516 0.18507,0.484337 0.59127,0.414597 0.22847,-0.03923 0.83686,-0.09893 1.35199,-0.132671 1.27298,-0.08339 2.41475,0.24704 3.70482,1.072159 0.25528,0.163273 0.92883,0.4882 1.49679,0.722058 0.56797,0.233856 1.40342,0.591283 1.85657,0.794282 2.26839,1.016175 2.961,1.290571 3.25759,1.290571 0.40384,0 1.01498,0.355592 1.20738,0.702502 0.10584,0.1909 0.13547,0.83615 0.10876,2.3712 -0.0366,2.10165 -0.0377,2.10965 -0.32679,2.31522 -0.31197,0.22185 -1.43109,0.43475 -2.70678,0.51494 -0.63967,0.0402 -0.83515,0.0123 -1.0153,-0.14504 -0.49762,-0.43457 -0.16592,-0.9164 1.02992,-1.49609 0.27434,-0.13299 0.52871,-0.317 0.56526,-0.40892 0.11092,-0.27891 -0.32142,-1.19726 -0.76829,-1.63194 -0.33,-0.32101 -0.54536,-0.42591 -0.99657,-0.48543 -0.31657,-0.0418 -1.17607,-0.16687 -1.90999,-0.27804 -0.73392,-0.11117 -1.80435,-0.26299 -2.37873,-0.33739 -0.57437,-0.0744 -1.3315,-0.18526 -1.68251,-0.24637 -0.65497,-0.11404 -2.63261,-0.36375 -4.17727,-0.52746 -1.45019,-0.153694 -1.91589,-0.31667 -2.38774,-0.835618 -0.41765,-0.45934 -2.25366,-2.842637 -2.25366,-2.925448 0,-0.0237 -0.46587,-0.746028 -1.03527,-1.60517 -0.56939,-0.859139 -1.14965,-1.78192 -1.28948,-2.050624 -0.13982,-0.268703 -0.34631,-0.589328 -0.45886,-0.712499 -0.11255,-0.123172 -0.23956,-0.412903 -0.28225,-0.643848 -0.0427,-0.230947 -0.14051,-0.425705 -0.21739,-0.432796 -0.43941,-0.04053 -1.11531,0.162537 -2.43479,0.731522 -0.36878,0.159023 -0.76041,0.290846 -0.87027,0.292934 -0.10987,0.0021 -0.40862,0.101154 -0.66389,0.220149 -0.25528,0.118992 -0.57584,0.218059 -0.71237,0.220148 -0.13653,0.0021 -0.36559,0.09551 -0.50904,0.207602 -0.23755,0.185619 -0.24858,0.23959 -0.12362,0.604975 0.0895,0.261481 0.11826,0.882589 0.0827,1.783731 -0.0551,1.402154 -0.10009,1.605704 -0.87403,3.957956 -0.18236,0.554269 -0.44808,1.385676 -0.5905,1.847566 -0.14243,0.46189 -0.3105,0.96577 -0.37349,1.11974 -0.15343,0.37497 -0.35632,1.54195 -0.3407,1.95954 0.007,0.18476 0.0431,0.78941 0.0804,1.34368 0.0656,0.97322 0.0575,1.01828 -0.23284,1.3144 -0.1654,0.16864 -0.41666,0.32989 -0.55836,0.35832 -0.1417,0.0284 -1.30195,0.0814 -2.57833,0.1178 -1.27639,0.0364 -2.55568,0.11227 -2.84287,0.16868 -0.59979,0.11781 -1.61142,0.12195 -2.2086,0.009 z m 2.20119,-0.64922 c 0.66758,-0.13542 1.29141,-0.16137 2.75638,-0.11468 1.81087,0.0577 1.90995,0.0497 2.27009,-0.1851 0.37641,-0.24535 0.37657,-0.24585 0.35076,-1.13622 -0.0142,-0.48992 -0.0348,-1.04193 -0.0459,-1.22669 -0.0403,-0.67197 0.33123,-2.08708 1.23477,-4.702895 0.81319,-2.354264 0.99224,-3.04229 1.00533,-3.863095 0.0144,-0.905169 -0.16414,-2.56886 -0.29819,-2.778169 -0.15956,-0.249129 0.14079,-0.549006 0.61078,-0.609839 0.38005,-0.0492 1.72779,-0.476065 2.74068,-0.868066 0.28434,-0.110044 1.70803,-0.608035 2.26268,-0.791461 0.22337,-0.07386 0.54699,-0.204193 0.71915,-0.289609 0.38259,-0.189818 1.74289,-0.645232 2.76191,-0.924652 3.6055,-0.988647 3.88843,-1.123463 4.44093,-2.116133 0.53075,-0.953597 0.59976,-1.967534 0.18957,-2.785218 -0.26658,-0.531402 -1.48626,-1.466256 -2.33773,-1.791808 -0.27182,-0.103925 -0.54644,-0.251004 -0.61025,-0.326829 -0.0638,-0.07582 -0.48155,-0.431725 -0.92829,-0.79089 -1.20371,-0.967756 -1.3076,-1.052268 -2.00904,-1.634318 -0.3543,-0.294 -0.85693,-0.664425 -1.11694,-0.823163 -0.48537,-0.296325 -1.57498,-1.715676 -1.57166,-2.047313 0.003,-0.311693 0.19582,-0.488872 0.53713,-0.493809 1.08437,-0.01569 3.51089,0.193592 3.80122,0.32784 0.18531,0.0857 0.54907,0.155794 0.80837,0.155794 0.55611,0 1.3832,0.278223 1.87214,0.629769 0.19175,0.137859 0.47892,0.305127 0.6382,0.371704 0.15926,0.06657 0.45145,0.215958 0.6493,0.331958 0.19785,0.115998 0.6939,0.386058 1.10234,0.600133 1.12738,0.590901 2.51882,1.44554 3.39276,2.083872 0.44101,0.322109 0.90786,0.573486 1.06507,0.573486 0.15395,0 0.45832,-0.151163 0.67638,-0.335919 0.21806,-0.184758 0.44676,-0.335922 0.50821,-0.335922 0.19892,0 0.51732,-0.425407 0.47545,-0.635231 -0.0313,-0.156814 -0.19378,-0.222448 -0.70247,-0.283767 -0.90409,-0.108985 -2.53903,-0.681585 -3.13637,-1.098452 -1.25268,-0.874215 -4.28057,-2.731237 -4.95947,-3.041671 -2.25036,-1.028993 -2.66166,-1.211411 -2.73139,-1.211411 -0.042,0 -0.24094,-0.07214 -0.44204,-0.160305 -2.17813,-0.954952 -2.93337,-1.130746 -3.91168,-0.910506 -1.1182,0.251725 -1.56057,0.657813 -1.27586,1.171195 0.20807,0.375171 0.15378,0.795407 -0.1028,0.795407 -0.12387,0 -0.26747,-0.06297 -0.3191,-0.139968 -0.0517,-0.07699 -0.12845,-0.895789 -0.17071,-1.819573 -0.13887,-3.035664 -0.86319,-5.5018164 -1.9321,-6.5784574 -0.74124,-0.746603 -1.06778,-0.464036 -0.36892,0.319248 0.52052,0.583408 0.89892,1.4528794 1.2621,2.8999974 0.36052,1.436535 0.47949,2.075851 0.47926,2.575397 -1.2e-4,0.307928 0.079,0.706506 0.17583,0.885732 0.10204,0.188893 0.19565,0.73015 0.22262,1.287696 0.0256,0.529011 0.0838,1.276762 0.12939,1.661672 0.058,0.489447 0.0439,0.699836 -0.0471,0.699836 -0.0714,0 -0.16083,-0.138567 -0.19859,-0.307927 -0.0378,-0.169361 -0.15308,-0.501113 -0.25629,-0.737226 -0.10324,-0.236115 -0.18339,-0.689608 -0.17819,-1.007764 0.005,-0.318156 -0.0639,-0.715985 -0.15377,-0.884062 -0.0898,-0.168078 -0.19088,-0.593907 -0.22466,-0.946286 -0.0338,-0.35238 -0.10421,-0.693548 -0.1566,-0.758154 -0.0523,-0.06461 -0.12333,-0.395507 -0.15775,-0.735335 -0.0344,-0.33983 -0.14907,-0.894099 -0.25478,-1.231712 -0.10574,-0.337613 -0.28002,-0.890976 -0.38734,-1.229698 -0.2115,-0.667553 -0.59581,-1.3880674 -0.69125,-1.2959744 -0.071,0.06852 0.4286,1.6420004 0.56971,1.7942594 0.0542,0.05851 0.0986,0.275158 0.0986,0.481449 0,0.206291 0.0722,0.511139 0.16052,0.677441 0.0882,0.166302 0.1974,0.629891 0.24249,1.030197 0.0451,0.400306 0.13367,0.929382 0.19685,1.175725 0.0632,0.246341 0.16295,0.901388 0.22175,1.455657 0.3033,2.859229 0.48885,3.518869 0.99174,3.525459 0.072,8.95e-4 0.19295,0.07392 0.26885,0.162184 0.11097,0.129034 0.0831,0.195138 -0.1419,0.337447 -0.24892,0.157392 -0.3248,0.15887 -0.68569,0.01335 -0.22318,-0.08999 -0.51634,-0.135721 -0.65145,-0.101625 -0.32077,0.08095 -0.82784,-0.446887 -1.18129,-1.229667 -0.14396,-0.31881 -0.33385,-0.713399 -0.42197,-0.876867 -0.0882,-0.163467 -0.16025,-0.458039 -0.16025,-0.654609 0,-0.374711 -0.31598,-1.562895 -0.45421,-1.707976 -0.0442,-0.04641 -0.1718,-0.01992 -0.2835,0.05889 -0.16394,0.115681 -0.21163,0.358507 -0.2475,1.260123 -0.0749,1.882456 -0.0692,5.545411 0.009,5.667211 0.10855,0.169513 0.80226,0.443442 4.39944,1.737261 l 3.24899,1.168582 1.12398,-0.07489 c 1.38132,-0.09203 1.74803,-0.02274 1.6974,0.320822 -0.0327,0.221549 -0.14167,0.261745 -1.02283,0.377083 -1.06741,0.139716 -1.63215,0.313855 -2.65063,0.817315 -0.36101,0.17846 -0.83914,0.405183 -1.0625,0.503834 -0.84247,0.372076 -2.8755,1.701482 -4.11926,2.693597 -1.62463,1.295947 -3.22782,2.709535 -3.31026,2.918795 -0.0551,0.139883 -0.13272,2.760043 -0.17245,5.822581 -0.0817,6.299253 -0.0634,6.168693 -0.95839,6.828143 -0.28807,0.21226 -0.59104,0.38593 -0.67327,0.38593 -0.0822,0 -0.80242,0.32702 -1.60041,0.72673 -0.798,0.3997 -1.74043,0.83126 -2.09429,0.95902 -0.67017,0.24197 -0.82675,0.36489 -0.70566,0.55396 0.0799,0.12476 0.60091,0.0721 1.90702,-0.19288 z m 34.4352,-1.76719 c 0.77012,-0.19257 0.99652,-0.40761 0.87343,-0.82962 -0.10892,-0.37347 -0.0624,-1.87138 0.0649,-2.09094 0.13969,-0.24089 -0.0214,-1.27876 -0.21694,-1.39794 -0.0905,-0.0551 -0.45174,-0.0919 -0.80275,-0.0818 -0.56599,0.0164 -0.80886,-0.0613 -2.14665,-0.686572 -0.82966,-0.387788 -1.61289,-0.747036 -1.74053,-0.798332 -0.48027,-0.193013 -1.89871,-0.823621 -3.07493,-1.367051 -0.6701,-0.309596 -1.40113,-0.609453 -1.6245,-0.66635 -0.99333,-0.253018 -1.62886,-0.311124 -2.11496,-0.193369 -1.78773,0.433081 -1.83059,0.42216 -2.09446,-0.533754 -0.0984,-0.3563 -0.29008,-1.000537 -0.42604,-1.431635 -0.13597,-0.431099 -0.35225,-1.161728 -0.48062,-1.62362 -0.12837,-0.46189 -0.31756,-1.142132 -0.42043,-1.511645 -0.10291,-0.369514 -0.29125,-0.84192 -0.41864,-1.049793 -0.13553,-0.221145 -0.22452,-0.552707 -0.21451,-0.799179 0.0279,-0.686751 -0.15462,-0.746528 -1.43204,-0.469049 -0.60114,0.130577 -1.31669,0.334821 -1.59011,0.45388 -0.64197,0.279533 -1.55942,0.576442 -1.78121,0.576442 -0.30919,0 -0.31014,0.313299 -0.003,0.960827 0.1654,0.348629 0.30072,0.674287 0.30072,0.723686 0,0.382555 2.65455,4.440661 4.01627,6.139809 0.79197,0.988212 1.19392,1.188433 2.59774,1.294018 0.54246,0.0408 1.56067,0.175505 2.26268,0.29935 0.70202,0.123843 1.85076,0.271623 2.55278,0.328398 0.70201,0.05678 1.46876,0.161569 1.70387,0.232879 0.2429,0.0737 0.63576,0.0975 0.9098,0.0552 0.29456,-0.0454 0.7379,-0.0113 1.13898,0.0877 0.36118,0.0892 0.94387,0.21835 1.29488,0.28708 0.8094,0.1585 1.59858,0.54435 1.8938,0.92592 0.23093,0.29848 0.39396,0.91542 0.50596,1.91467 0.0505,0.45069 0.0185,0.58384 -0.19311,0.80113 -0.13954,0.14333 -0.43204,0.29288 -0.65,0.33234 -0.21796,0.0395 -0.3963,0.11985 -0.3963,0.17864 0,0.16207 0.94887,0.12794 1.70586,-0.0614 z m -6.1057,-26.033606 c 0.37729,0 0.45465,-0.0381 0.45465,-0.223948 0,-0.209729 -0.0774,-0.223947 -1.21837,-0.223947 -0.98878,0 -1.21838,0.03069 -1.21838,0.162888 0,0.101396 0.16427,0.188752 0.43515,0.231403 0.23931,0.03769 0.51345,0.08438 0.60918,0.103742 0.0957,0.01937 0.24359,0.01602 0.32858,-0.0075 0.085,-0.02347 0.35913,-0.04268 0.60919,-0.04268 z m -1.86606,-1.017505 c 0.4299,-0.04429 0.12883,-0.07169 -0.92248,-0.08398 -1.06144,-0.01241 -1.52278,0.0183 -1.44225,0.09604 0.0651,0.06286 0.45414,0.277002 0.86447,0.475888 l 0.74604,0.361608 0.058,-0.391907 c 0.0568,-0.383518 0.0716,-0.393316 0.69621,-0.457637 z m 5.94681,0.712556 c -0.20741,-0.02484 -0.54682,-0.02484 -0.75423,0 -0.20742,0.02484 -0.0377,0.04516 0.37711,0.04516 0.41483,0 0.58453,-0.02032 0.37712,-0.04516 z m -23.19791,-0.384736 c 0.0826,-0.126309 0.0459,-0.23692 -0.13675,-0.413238 -0.16619,-0.160375 -0.24974,-0.380958 -0.25022,-0.660662 -3.5e-4,-0.230946 -0.0826,-0.571066 -0.18262,-0.755824 -0.10009,-0.184757 -0.20686,-0.587862 -0.23734,-0.89579 -0.0525,-0.530887 -0.13809,-0.879713 -0.55911,-2.280326 -0.0993,-0.330397 -0.1804,-0.78389 -0.18019,-1.007764 6.9e-4,-0.752927 -0.61809,-2.613795 -1.04756,-3.150402 l -0.22404,-0.279934 -0.002,0.30132 c -10e-4,0.165725 0.0456,0.330043 0.10443,0.36515 0.14925,0.08901 0.47267,1.516931 0.47543,2.098992 0.001,0.264978 0.0847,0.884884 0.18534,1.377569 0.10063,0.492683 0.2251,1.298895 0.2765,1.791579 0.20939,2.007069 0.44846,2.720737 1.15233,3.439859 0.31996,0.326901 0.44876,0.341185 0.62637,0.06946 z m 23.90809,-1.213867 c -0.009,-0.21555 -0.0433,-2.86093 -0.0779,-5.878623 -0.0346,-3.0176934 -0.0986,-5.6452784 -0.14212,-5.8390783 l -0.0791,-0.352366 -1.9895,-0.07733 c -1.17151,-0.04553 -2.65741,-0.02745 -3.61399,0.04399 -0.89347,0.06672 -4.51764,0.121509 -8.0537,0.12176 l -6.4292,4.55e-4 0.0716,1.9932759 c 0.0403,1.121305 0.0201,2.4561084 -0.0462,3.0512844 -0.0648,0.581905 -0.0844,1.423323 -0.0434,1.869818 l 0.0744,0.81181 h 0.37446 c 0.47779,0 1.99118,0.501853 3.55094,1.177521 0.67011,0.290281 1.67266,0.721369 2.22789,0.957978 0.55524,0.236608 1.31238,0.617517 1.68251,0.846463 0.37015,0.228948 0.88186,0.545045 1.13713,0.702439 0.25529,0.157393 0.67704,0.438348 0.93725,0.624341 l 0.47311,0.338169 h 4.98055 4.98054 l -0.0151,-0.391908 z m -28.12813,-0.291213 0.49356,-0.190574 -0.0466,-0.706586 c -0.0256,-0.388623 -0.0878,-0.746311 -0.13809,-0.794865 -0.0503,-0.04855 -0.59623,-0.09459 -1.21315,-0.102304 -0.78848,-0.0099 -1.25956,-0.07231 -1.58583,-0.210241 -0.394,-0.166567 -0.6694,-0.185166 -1.82238,-0.123077 -0.87071,0.04689 -1.54332,0.02816 -1.87386,-0.05215 l -0.51563,-0.125288 -0.0798,-1.697152 c -0.14237,-3.027529 -0.13034,-6.0294984 0.0258,-6.4560374 0.0789,-0.215549 0.19186,-0.8454019 0.25092,-1.3996719 0.0591,-0.554269 0.21749,-1.298834 0.35205,-1.654587 0.36193,-0.956879 0.2427,-1.108073 -0.84026,-1.06555 l -0.83453,0.03276 0.0277,0.699513 c 0.0152,0.384732 0.13561,1.008724 0.26754,1.386651 0.29297,0.8392 0.32274,1.3871669 0.12699,2.3367989 -0.2775,1.346275 -0.52691,2.8154904 -0.72618,4.2777644 -0.0647,0.474411 -0.10107,1.716378 -0.0809,2.759924 0.0441,2.278667 0.0241,2.242735 1.47847,2.655451 0.54724,0.155291 1.30828,0.382046 1.69119,0.503899 0.61467,0.195598 0.92187,0.215359 2.62278,0.168715 1.44194,-0.03955 2.05072,-0.100763 2.42013,-0.243407 z m -0.73342,-2.676092 c 0.0188,-0.06158 -0.19113,-0.275697 -0.46642,-0.475801 -0.33774,-0.245504 -0.64468,-0.627876 -0.94381,-1.175725 -0.2438,-0.446543 -0.51256,-0.937868 -0.59723,-1.091832 -0.0847,-0.153963 -0.15426,-0.410981 -0.15466,-0.571152 -8.4e-4,-0.343705 -0.21623,-1.005346 -0.37906,-1.16444 -0.24893,-0.243205 0.15448,2.462781 0.49532,3.322501 0.30339,0.765258 0.60516,1.107397 1.07413,1.217813 0.47597,0.112056 0.92763,0.08355 0.97173,-0.06136 z m -2.74301,-0.443881 c 0,-0.374471 -0.15942,-0.843817 -0.28661,-0.843817 -0.20646,0 -0.46656,-0.313472 -0.81219,-0.97886 -0.61471,-1.183398 -0.6646,-2.770393 -0.11181,-3.5564504 0.15528,-0.220815 0.28233,-0.517404 0.28233,-0.659087 0,-0.376242 0.32056,-0.597581 1.16534,-0.804629 0.41208,-0.100993 0.80145,-0.223623 0.86527,-0.272499 0.0638,-0.04888 0.42934,-0.141461 0.81225,-0.205742 1.18257,-0.19852 1.37817,-0.250133 1.83415,-0.483989 0.28942,-0.14843 0.68951,-0.232268 1.16035,-0.243145 1.14785,-0.02652 1.49403,0.09099 2.20204,0.747465 l 0.63828,0.591811 -0.0611,-0.902539 c -0.0336,-0.496396 -0.0846,-0.9277319 -0.11327,-0.9585249 -0.0287,-0.0308 -2.14946,-0.04347 -4.71284,-0.02816 -5.20195,0.03106 -4.9508,-0.01047 -4.9508,0.8191439 0,0.226742 -0.10671,0.645058 -0.23713,0.92959 -0.26334,0.574475 -0.34065,1.533671 -0.33814,4.1949544 0.002,1.811627 0.14041,2.674718 0.43836,2.727744 0.10726,0.01908 0.65182,0.0428 1.21024,0.05271 0.75967,0.01347 1.01531,-0.01824 1.01531,-0.12597 z m 4.52548,-0.284044 c 0.23842,-0.214918 0.34735,-0.3999 0.30226,-0.513279 -0.0388,-0.0975 -0.10487,-0.538347 -0.14693,-0.979674 -0.0482,-0.505767 -0.21975,-1.146249 -0.46405,-1.732475 -0.21318,-0.511533 -0.38931,-0.990223 -0.39141,-1.063752 -0.002,-0.07353 -0.24322,-0.331332 -0.53585,-0.572896 -0.42275,-0.3489934 -0.6295,-0.4409914 -1.00655,-0.4478944 -0.43016,-0.0078 -0.48413,0.02271 -0.57734,0.327234 -0.0566,0.1847544 -0.20239,0.5222604 -0.32405,0.7500124 -0.36589,0.684932 -0.29921,1.518406 0.20189,2.523779 0.89833,1.802349 2.07815,2.487676 2.94203,1.708945 z m -4.98962,-1.959446 c 0,-0.153964 -0.0522,-0.279933 -0.11604,-0.279933 -0.12963,0 -0.15905,0.369061 -0.0386,0.485218 0.12791,0.123434 0.15471,0.08787 0.15471,-0.205285 z m 6.19183,-3.5831594 c -0.0367,-0.09238 -0.0873,-0.167961 -0.1124,-0.167961 -0.0251,0 -0.0456,0.07558 -0.0456,0.167961 0,0.09238 0.0506,0.16796 0.11239,0.16796 0.0618,0 0.0824,-0.07558 0.0456,-0.16796 z m 8.26697,-4.0402129 c -0.0387,-0.09742 -0.0704,-0.372315 -0.0704,-0.610889 v -0.43377 l -0.47874,0.162994 c -0.26329,0.08964 -0.78546,0.162993 -1.16035,0.162993 h -0.68162 v 0.447895 0.447895 h 1.23078 c 1.07464,0 1.22186,-0.02247 1.16036,-0.177118 z m -11.74165,-0.118842 c 0.0403,-0.101189 0.0588,-0.194987 0.0415,-0.208432 -0.0175,-0.01344 -0.5704,-0.05472 -1.22876,-0.09171 -1.07729,-0.06054 -1.1933,-0.04859 -1.15975,0.119541 0.049,0.245537 0.43451,0.339821 1.44509,0.35343 0.66882,0.009 0.84296,-0.02436 0.902,-0.172827 z m 5.58252,-0.123712 c -0.044,-0.169234 -0.0888,-0.313748 -0.0997,-0.321142 -0.0109,-0.0074 -0.58089,-0.03986 -1.26695,-0.07215 -1.23868,-0.05829 -1.24738,-0.05692 -1.24738,0.196458 0,0.223194 0.0836,0.268983 0.66721,0.365474 0.36695,0.06067 0.97309,0.116779 1.34698,0.124684 l 0.67978,0.01438 -0.08,-0.307699 z m 12.9609,-0.131115 c -0.0502,-0.329707 -0.0769,-0.345003 -0.60245,-0.345003 -0.30249,0 -0.87094,-0.03237 -1.26321,-0.07193 l -0.71324,-0.07194 v 0.33321 c 0,0.183267 0.0224,0.354206 0.0497,0.379867 0.0274,0.02566 0.61941,0.06334 1.3157,0.08373 l 1.26595,0.03708 -0.0524,-0.345003 z m 3.40297,0.270853 c -0.051,-0.328695 -0.13633,-0.503882 -0.24524,-0.503882 -0.28198,0 -0.18486,-0.33489 0.13071,-0.450666 0.1637,-0.06006 0.94041,-0.109204 1.72601,-0.109204 h 1.42839 l 0.0725,0.349917 c 0.11129,0.536989 0.0867,0.935232 -0.0668,1.083346 -0.093,0.0898 -0.6082,0.134369 -1.5533,0.134369 h -1.41406 l -0.0783,-0.503882 z m 2.60474,-0.335922 c 0,-0.269322 -0.028,-0.279934 -0.73973,-0.279934 -1.09717,0 -1.44952,0.08869 -1.37946,0.34723 0.0511,0.188739 0.17348,0.21264 1.08841,0.21264 1.02214,0 1.03078,-0.0023 1.03078,-0.279936 z m 2.98329,0.758872 c -0.96694,-0.03782 -1.02572,-0.05458 -1.13134,-0.322691 -0.0612,-0.155539 -0.11143,-0.482494 -0.11143,-0.726564 v -0.443765 l 1.59549,0.03115 1.59548,0.03115 v 0.727829 0.727829 l -0.46413,0.0075 c -0.25529,0.0041 -0.92311,-0.01047 -1.48407,-0.03242 z m 1.42604,-0.758872 c 0,-0.278756 -0.004,-0.279934 -1.09147,-0.279934 -1.02375,0 -1.08781,0.0135 -1.0325,0.217611 0.0659,0.243053 0.31206,0.300341 1.39875,0.325481 0.70085,0.01621 0.72522,0.0074 0.72522,-0.263158 z"
       id="path3954"
       inkscape:connector-curvature="0" />
  </g>
  <g
     inkscape:groupmode="layer"
     id="layer83"
     inkscape:label="Layer 2">
    <rect
       y="0"
       x="0"
       height="26"
       width="256"
       id="rect2825-5"
       style="fill:#262626;fill-opacity:1;stroke:none"
       inkscape:export-filename="/home/olaf/src/cinelerra-gg/cin5/cinelerra-5.1/plugins/theme_neophyte/data/menubar_bg.png"
       inkscape:export-xdpi="96"
       inkscape:export-ydpi="96" />
    <rect
       y="0"
       x="0"
       height="1"
       width="256"
       id="rect2827-7"
       style="fill:#3b3b3b;fill-opacity:1;stroke:none"
       inkscape:export-filename="/home/olaf/src/cinelerra-gg/cin5/cinelerra-5.1/plugins/theme_neophyte/data/menubar_bg.png"
       inkscape:export-xdpi="96"
       inkscape:export-ydpi="96" />
    <rect
       style="fill:#141414;fill-opacity:1;stroke:none"
       id="rect2829-0"
       width="256"
       height="1"
       x="0"
       y="25"
       inkscape:export-filename="/home/olaf/src/cinelerra-gg/cin5/cinelerra-5.1/plugins/theme_neophyte/data/menubar_bg.png"
       inkscape:export-xdpi="96"
       inkscape:export-ydpi="96" />
    <rect
       style="opacity:1;fill:#141414;fill-opacity:1;fill-rule:evenodd;stroke:none;stroke-width:0.98017859;stroke-linejoin:miter;stroke-miterlimit:4;stroke-dasharray:none;stroke-dashoffset:0;stroke-opacity:1"
       id="rect1501"
       width="1.3262551"
       height="26"
       x="254.67375"
       y="0"
       inkscape:export-filename="/home/olaf/src/cinelerra-gg/cin5/cinelerra-5.1/plugins/theme_neophyte/data/menubar_bg.png"
       inkscape:export-xdpi="96"
       inkscape:export-ydpi="96" />
    <text
       xml:space="preserve"
       style="font-style:normal;font-variant:normal;font-weight:normal;font-stretch:normal;font-size:16px;line-height:25px;font-family:Andika;-inkscape-font-specification:'Andika, Normal';font-variant-ligatures:normal;font-variant-caps:normal;font-variant-numeric:normal;font-feature-settings:normal;text-align:start;letter-spacing:0px;word-spacing:0px;writing-mode:lr-tb;text-anchor:start;fill:#000000;fill-opacity:1;stroke:none"
       x="-131.24152"
       y="17.461403"
       id="text1493"><tspan
         sodipodi:role="line"
         id="tspan1491"
         x="-131.24152"
         y="17.461403">menubar_bg</tspan></text>
    <text
       xml:space="preserve"
       style="font-style:normal;font-variant:normal;font-weight:normal;font-stretch:normal;font-size:16px;line-height:25px;font-family:Andika;-inkscape-font-specification:'Andika, Normal';font-variant-ligatures:normal;font-variant-caps:normal;font-variant-numeric:normal;font-feature-settings:normal;text-align:start;letter-spacing:0px;word-spacing:0px;writing-mode:lr-tb;text-anchor:start;fill:#000000;fill-opacity:1;stroke:none"
       x="-129.0278"
       y="55.410744"
       id="text1497"><tspan
         sodipodi:role="line"
         id="tspan1495"
         x="-129.0278"
         y="55.410744">mbutton_bg</tspan></text>
    <text
       xml:space="preserve"
       style="font-style:normal;font-variant:normal;font-weight:normal;font-stretch:normal;font-size:16px;line-height:25px;font-family:Andika;-inkscape-font-specification:'Andika, Normal';font-variant-ligatures:normal;font-variant-caps:normal;font-variant-numeric:normal;font-feature-settings:normal;text-align:start;letter-spacing:0px;word-spacing:0px;writing-mode:lr-tb;text-anchor:start;fill:#000000;fill-opacity:1;stroke:none"
       x="-124.28412"
       y="143.64299"
       id="text1537"><tspan
         sodipodi:role="line"
         id="tspan1535"
         x="-124.28412"
         y="143.64299">statusbar</tspan></text>
  </g>
</svg>
