<?xml version="1.0" encoding="UTF-8" standalone="no"?>
<!-- Created with Inkscape (http://www.inkscape.org/) -->

<svg
   xmlns:dc="http://purl.org/dc/elements/1.1/"
   xmlns:cc="http://creativecommons.org/ns#"
   xmlns:rdf="http://www.w3.org/1999/02/22-rdf-syntax-ns#"
   xmlns:svg="http://www.w3.org/2000/svg"
   xmlns="http://www.w3.org/2000/svg"
   xmlns:sodipodi="http://sodipodi.sourceforge.net/DTD/sodipodi-0.dtd"
   xmlns:inkscape="http://www.inkscape.org/namespaces/inkscape"
   id="svg2"
   version="1.1"
   inkscape:version="0.92.3 (2405546, 2018-03-11)"
   width="18.000185"
   height="18"
   sodipodi:docname="plugin_showselecthi.svg"
   inkscape:export-filename="/home/olaf/src/cinelerra-gg/cin5/cinelerra-5.1/plugins/theme_neophyte/data/plugin_showselecthi.png"
   inkscape:export-xdpi="96"
   inkscape:export-ydpi="96">
  <metadata
     id="metadata8">
    <rdf:RDF>
      <cc:Work
         rdf:about="">
        <dc:format>image/svg+xml</dc:format>
        <dc:type
           rdf:resource="http://purl.org/dc/dcmitype/StillImage" />
        <dc:title />
      </cc:Work>
    </rdf:RDF>
  </metadata>
  <defs
     id="defs6" />
  <sodipodi:namedview
     pagecolor="#ffffff"
     bordercolor="#666666"
     borderopacity="1"
     objecttolerance="10"
     gridtolerance="10"
     guidetolerance="10"
     inkscape:pageopacity="0"
     inkscape:pageshadow="2"
     inkscape:window-width="1280"
     inkscape:window-height="721"
     id="namedview4"
     showgrid="false"
     inkscape:zoom="5.9"
     inkscape:cx="-87.211788"
     inkscape:cy="-1.6251608"
     inkscape:window-x="0"
     inkscape:window-y="27"
     inkscape:window-maximized="1"
     inkscape:current-layer="svg2" />
  <path
     inkscape:connector-curvature="0"
     style="display:inline;fill:#fff6d5;fill-opacity:1;fill-rule:evenodd;stroke:#ffeeaa;stroke-width:1.02326047;stroke-linecap:round;stroke-linejoin:round;stroke-miterlimit:4;stroke-dasharray:none;stroke-opacity:1"
     d="m 6.7423917,3.0118278 c -2.33492,0 -4.23066,1.8362801 -4.23066,4.0979201 0,2.26163 1.89574,4.0979201 4.23066,4.0979201 0.86587,0 1.68861,-0.2499 2.35941,-0.68299 l 5.5934193,5.46389 0.79325,-1.04582 -5.6544393,-5.0583701 c 0.7042803,-0.73205 1.1390203,-1.6961 1.1390203,-2.77463 0,-2.26164 -1.8957303,-4.0979201 -4.2306603,-4.0979201 z m 0.061,0.25612 c 2.08977,0 3.7831903,1.6468701 3.7831903,3.6710501 0,2.02418 -1.6934103,3.6710501 -3.7831903,3.6710501 -2.08977,0 -3.78319,-1.6468701 -3.78319,-3.6710501 0,-2.02418 1.69342,-3.6710501 3.78319,-3.6710501 z"
     id="path15529-69" />
  <path
     inkscape:connector-curvature="0"
     id="path11112-1-42"
     d="m 6.7423917,2.0114579 c -2.33492,0 -4.23066,1.8362899 -4.23066,4.09792 0,2.26164 1.89574,4.0979201 4.23066,4.0979201 0.86587,0 1.68861,-0.2499001 2.35941,-0.6829901 l 5.5934193,5.4638901 0.79325,-1.04582 -5.6544393,-5.0583601 c 0.7042803,-0.73206 1.1390203,-1.6961 1.1390203,-2.77464 0,-2.2616301 -1.8957303,-4.09792 -4.2306603,-4.09792 z m 0.061,0.25612 c 2.08977,0 3.7831903,1.6468799 3.7831903,3.67106 0,2.02417 -1.6934103,3.67105 -3.7831903,3.67105 -2.08977,0 -3.78319,-1.64688 -3.78319,-3.67105 0,-2.0241801 1.69342,-3.67106 3.78319,-3.67106 z"
     style="display:inline;fill:#ffcc00;fill-opacity:1;fill-rule:evenodd;stroke:#ffcc00;stroke-width:1.02326047;stroke-linecap:round;stroke-linejoin:round;stroke-miterlimit:4;stroke-dasharray:none;stroke-opacity:1" />
</svg>
