<?xml version="1.0" encoding="UTF-8" standalone="no"?>
<!-- Created with Inkscape (http://www.inkscape.org/) -->

<svg
   xmlns:dc="http://purl.org/dc/elements/1.1/"
   xmlns:cc="http://creativecommons.org/ns#"
   xmlns:rdf="http://www.w3.org/1999/02/22-rdf-syntax-ns#"
   xmlns:svg="http://www.w3.org/2000/svg"
   xmlns="http://www.w3.org/2000/svg"
   xmlns:sodipodi="http://sodipodi.sourceforge.net/DTD/sodipodi-0.dtd"
   xmlns:inkscape="http://www.inkscape.org/namespaces/inkscape"
   id="svg2"
   version="1.1"
   inkscape:version="0.92.3 (2405546, 2018-03-11)"
   width="18.000185"
   height="18"
   sodipodi:docname="plugin_showhi.svg"
   inkscape:export-filename="/home/olaf/src/cinelerra-gg/cin5/cinelerra-5.1/plugins/theme_neophyte/data/plugin_showhi.png"
   inkscape:export-xdpi="96"
   inkscape:export-ydpi="96">
  <metadata
     id="metadata8">
    <rdf:RDF>
      <cc:Work
         rdf:about="">
        <dc:format>image/svg+xml</dc:format>
        <dc:type
           rdf:resource="http://purl.org/dc/dcmitype/StillImage" />
        <dc:title />
      </cc:Work>
    </rdf:RDF>
  </metadata>
  <defs
     id="defs6" />
  <sodipodi:namedview
     pagecolor="#ffffff"
     bordercolor="#666666"
     borderopacity="1"
     objecttolerance="10"
     gridtolerance="10"
     guidetolerance="10"
     inkscape:pageopacity="0"
     inkscape:pageshadow="2"
     inkscape:window-width="1280"
     inkscape:window-height="721"
     id="namedview4"
     showgrid="false"
     inkscape:zoom="13.166599"
     inkscape:cx="-14.677384"
     inkscape:cy="10.289619"
     inkscape:window-x="0"
     inkscape:window-y="27"
     inkscape:window-maximized="1"
     inkscape:current-layer="svg2" />
  <path
     inkscape:connector-curvature="0"
     style="display:inline;fill:#ffcc00;fill-opacity:1;fill-rule:evenodd;stroke:#000000;stroke-width:1.02326047;stroke-linecap:round;stroke-linejoin:round;stroke-miterlimit:4;stroke-dasharray:none;stroke-opacity:1"
     d="m 6.7423925,3.0118258 c -2.334926,0 -4.2306616,1.836284 -4.2306606,4.0979179 0,2.2616361 1.8957346,4.0979193 4.2306606,4.0979193 0.865868,0 1.68861,-0.249897 2.359406,-0.682988 l 5.5934205,5.46389 0.793252,-1.045821 L 9.8340298,9.8843768 C 10.538313,9.1523227 10.973054,8.1882807 10.973054,7.1097437 c 0,-2.2616339 -1.8957365,-4.0979179 -4.2306615,-4.0979179 z m 0.06102,0.25612 c 2.089773,0 3.7831855,1.646874 3.7831855,3.6710511 0,2.0241768 -1.6934115,3.6710511 -3.7831855,3.6710511 -2.089774,0 -3.7831876,-1.6468733 -3.7831876,-3.6710511 0,-2.0241771 1.6934136,-3.6710511 3.7831876,-3.6710511 z"
     id="path15529-6" />
  <path
     inkscape:connector-curvature="0"
     id="path11112-1-1"
     d="m 6.7423925,2.0114608 c -2.334926,0 -4.2306616,1.836284 -4.2306606,4.0979177 0,2.261636 1.8957346,4.0979195 4.2306606,4.0979195 0.865868,0 1.68861,-0.2498972 2.359406,-0.6829882 L 14.695219,14.9882 15.488471,13.942379 9.8340298,8.8840115 c 0.7042832,-0.732054 1.1390242,-1.696096 1.1390242,-2.774633 0,-2.2616337 -1.8957365,-4.0979177 -4.2306615,-4.0979177 z m 0.06102,0.256119 c 2.089773,0 3.7831855,1.646875 3.7831855,3.6710519 0,2.0241768 -1.6934115,3.6710511 -3.7831855,3.6710511 -2.089774,0 -3.7831876,-1.6468733 -3.7831876,-3.6710511 0,-2.0241769 1.6934136,-3.6710519 3.7831876,-3.6710519 z"
     style="display:inline;fill:#e6e4dd;fill-opacity:1;fill-rule:evenodd;stroke:#3771c8;stroke-width:1.02326047;stroke-linecap:round;stroke-linejoin:round;stroke-miterlimit:4;stroke-dasharray:none;stroke-opacity:1" />
</svg>
