<?xml version="1.0" encoding="UTF-8" standalone="no"?>
<!-- Created with Inkscape (http://www.inkscape.org/) -->

<svg
   xmlns:dc="http://purl.org/dc/elements/1.1/"
   xmlns:cc="http://creativecommons.org/ns#"
   xmlns:rdf="http://www.w3.org/1999/02/22-rdf-syntax-ns#"
   xmlns:svg="http://www.w3.org/2000/svg"
   xmlns="http://www.w3.org/2000/svg"
   xmlns:sodipodi="http://sodipodi.sourceforge.net/DTD/sodipodi-0.dtd"
   xmlns:inkscape="http://www.inkscape.org/namespaces/inkscape"
   id="svg2"
   version="1.1"
   inkscape:version="0.92.3 (2405546, 2018-03-11)"
   width="18.000462"
   height="18.000093"
   sodipodi:docname="plugin_showselect.svg"
   inkscape:export-filename="/home/olaf/src/cinelerra-gg/cin5/cinelerra-5.1/plugins/theme_neophyte/data/plugin_showselect.png"
   inkscape:export-xdpi="96"
   inkscape:export-ydpi="96">
  <metadata
     id="metadata8">
    <rdf:RDF>
      <cc:Work
         rdf:about="">
        <dc:format>image/svg+xml</dc:format>
        <dc:type
           rdf:resource="http://purl.org/dc/dcmitype/StillImage" />
        <dc:title />
      </cc:Work>
    </rdf:RDF>
  </metadata>
  <defs
     id="defs6" />
  <sodipodi:namedview
     pagecolor="#ffffff"
     bordercolor="#666666"
     borderopacity="1"
     objecttolerance="10"
     gridtolerance="10"
     guidetolerance="10"
     inkscape:pageopacity="0"
     inkscape:pageshadow="2"
     inkscape:window-width="1280"
     inkscape:window-height="721"
     id="namedview4"
     showgrid="false"
     inkscape:zoom="13.166599"
     inkscape:cx="-24.702475"
     inkscape:cy="9.0000467"
     inkscape:window-x="0"
     inkscape:window-y="27"
     inkscape:window-maximized="1"
     inkscape:current-layer="svg2" />
  <path
     inkscape:connector-curvature="0"
     style="display:inline;fill:#ffcc00;fill-opacity:1;fill-rule:evenodd;stroke:#000000;stroke-width:1.02326047;stroke-linecap:round;stroke-linejoin:round;stroke-miterlimit:4;stroke-dasharray:none;stroke-opacity:1"
     d="m 6.7425301,3.0118748 c -2.33493,0 -4.23066,1.83628 -4.23066,4.09792 0,2.26163 1.89573,4.0979202 4.23066,4.0979202 0.86587,0 1.68861,-0.2499 2.3594,-0.68299 l 5.5934299,5.46389 0.79325,-1.04582 L 9.8341701,9.8844247 C 10.53845,9.1523748 10.97319,8.1883248 10.97319,7.1097948 c 0,-2.26164 -1.8957399,-4.09792 -4.2306599,-4.09792 z m 0.061,0.25612 c 2.08977,0 3.7831799,1.64687 3.7831799,3.67105 0,2.02418 -1.6934099,3.6710502 -3.7831799,3.6710502 -2.08977,0 -3.78319,-1.6468702 -3.78319,-3.6710502 0,-2.02418 1.69342,-3.67105 3.78319,-3.67105 z"
     id="path15529-1" />
  <path
     inkscape:connector-curvature="0"
     id="path11112-1-4"
     d="m 6.7425301,2.0115048 c -2.33493,0 -4.23066,1.83629 -4.23066,4.09792 0,2.26164 1.89573,4.0979202 4.23066,4.0979202 0.86587,0 1.68861,-0.2499003 2.3594,-0.6829902 L 14.69536,14.988245 15.48861,13.942425 9.8341701,8.8840648 c 0.7042799,-0.73206 1.1390199,-1.6961 1.1390199,-2.77464 0,-2.26163 -1.8957399,-4.09792 -4.2306599,-4.09792 z m 0.061,0.25612 c 2.08977,0 3.7831799,1.64688 3.7831799,3.67106 0,2.02417 -1.6934099,3.67105 -3.7831799,3.67105 -2.08977,0 -3.78319,-1.64688 -3.78319,-3.67105 0,-2.02418 1.69342,-3.67106 3.78319,-3.67106 z"
     style="display:inline;fill:#ffcc00;fill-opacity:1;fill-rule:evenodd;stroke:#ffcc00;stroke-width:1.02326047;stroke-linecap:round;stroke-linejoin:round;stroke-miterlimit:4;stroke-dasharray:none;stroke-opacity:1" />
</svg>
