<?xml version="1.0" encoding="UTF-8" standalone="no"?>
<!-- Created with Inkscape (http://www.inkscape.org/) -->

<svg
   xmlns:dc="http://purl.org/dc/elements/1.1/"
   xmlns:cc="http://creativecommons.org/ns#"
   xmlns:rdf="http://www.w3.org/1999/02/22-rdf-syntax-ns#"
   xmlns:svg="http://www.w3.org/2000/svg"
   xmlns="http://www.w3.org/2000/svg"
   xmlns:sodipodi="http://sodipodi.sourceforge.net/DTD/sodipodi-0.dtd"
   xmlns:inkscape="http://www.inkscape.org/namespaces/inkscape"
   id="svg2"
   version="1.1"
   inkscape:version="0.92.3 (2405546, 2018-03-11)"
   width="128"
   height="15"
   sodipodi:docname="progress_bg.svg"
   inkscape:export-filename="/home/olaf/src/cinelerra-gg/cin5/cinelerra-5.1/plugins/theme_neophyte/data/progress_bg.png"
   inkscape:export-xdpi="96"
   inkscape:export-ydpi="96">
  <metadata
     id="metadata8">
    <rdf:RDF>
      <cc:Work
         rdf:about="">
        <dc:format>image/svg+xml</dc:format>
        <dc:type
           rdf:resource="http://purl.org/dc/dcmitype/StillImage" />
        <dc:title />
      </cc:Work>
    </rdf:RDF>
  </metadata>
  <defs
     id="defs6">
    <inkscape:perspective
       sodipodi:type="inkscape:persp3d"
       inkscape:vp_x="0 : 0.5 : 1"
       inkscape:vp_y="0 : 1000 : 0"
       inkscape:vp_z="1 : 0.5 : 1"
       inkscape:persp3d-origin="0.5 : 0.33333333 : 1"
       id="perspective10" />
    <inkscape:perspective
       id="perspective10-0"
       inkscape:persp3d-origin="0.5 : 0.33333333 : 1"
       inkscape:vp_z="1 : 0.5 : 1"
       inkscape:vp_y="0 : 1000 : 0"
       inkscape:vp_x="0 : 0.5 : 1"
       sodipodi:type="inkscape:persp3d" />
  </defs>
  <sodipodi:namedview
     pagecolor="#ffffff"
     bordercolor="#666666"
     borderopacity="1"
     objecttolerance="10"
     gridtolerance="10"
     guidetolerance="10"
     inkscape:pageopacity="0"
     inkscape:pageshadow="2"
     inkscape:window-width="1280"
     inkscape:window-height="721"
     id="namedview4"
     showgrid="false"
     inkscape:zoom="12.210937"
     inkscape:cx="64"
     inkscape:cy="7.5"
     inkscape:window-x="0"
     inkscape:window-y="27"
     inkscape:window-maximized="1"
     inkscape:current-layer="layer2" />
  <g
     inkscape:groupmode="layer"
     id="layer1"
     inkscape:label="Layer 1"
     style="display:none"
     sodipodi:insensitive="true">
    <rect
       ry="0"
       y="0"
       x="0"
       height="15"
       width="128"
       id="rect3592"
       style="fill:#333333;stroke:none" />
    <rect
       y="13"
       x="0"
       height="1"
       width="128"
       id="rect3626"
       style="fill:#666666;fill-opacity:1;stroke:none" />
    <rect
       y="1"
       x="0"
       height="1"
       width="128"
       id="rect3598"
       style="fill:#1a1a1a;fill-opacity:1;stroke:none" />
    <path
       style="fill:#4d4d4d;stroke:none"
       d="M 0,0 V 15 H 128 V 0 Z m 3,1 h 122 c 0.554,0 1,0.446 1,1 v 11 c 0,0.554 -0.446,1 -1,1 H 3 C 2.446,14 2,13.554 2,13 V 2 C 2,1.446 2.446,1 3,1 Z"
       id="rect5917"
       inkscape:connector-curvature="0" />
  </g>
  <g
     inkscape:groupmode="layer"
     id="layer2"
     inkscape:label="Layer 2">
    <rect
       ry="0"
       y="0"
       x="0"
       height="15"
       width="128"
       id="rect3592-4"
       style="fill:#141414;fill-opacity:1;stroke:none" />
    <rect
       y="13"
       x="5.4028317e-07"
       height="1"
       width="128"
       id="rect3626-0"
       style="fill:#404040;fill-opacity:1;stroke:none" />
    <rect
       y="1"
       x="5.4028317e-07"
       height="1"
       width="128"
       id="rect3598-3"
       style="fill:#1a1a1a;fill-opacity:1;stroke:none" />
    <path
       inkscape:connector-curvature="0"
       style="fill:#262626;fill-opacity:1;stroke:none"
       d="M 1.225e-7,0 V 15 H 128 V 0 Z M 3.0000002,1 H 125 c 0.554,0 1,0.446 1,1 v 11 c 0,0.554 -0.446,1 -1,1 H 3.0000002 c -0.554,0 -1,-0.446 -1,-1 V 2 c 0,-0.554 0.446,-1 1,-1 z"
       id="rect5917-9" />
  </g>
</svg>
