<?xml version="1.0" encoding="UTF-8" standalone="no"?>
<!-- Created with Inkscape (http://www.inkscape.org/) -->

<svg
   xmlns:dc="http://purl.org/dc/elements/1.1/"
   xmlns:cc="http://creativecommons.org/ns#"
   xmlns:rdf="http://www.w3.org/1999/02/22-rdf-syntax-ns#"
   xmlns:svg="http://www.w3.org/2000/svg"
   xmlns="http://www.w3.org/2000/svg"
   xmlns:sodipodi="http://sodipodi.sourceforge.net/DTD/sodipodi-0.dtd"
   xmlns:inkscape="http://www.inkscape.org/namespaces/inkscape"
   id="svg2"
   version="1.1"
   inkscape:version="0.92.3 (2405546, 2018-03-11)"
   width="26"
   height="17"
   sodipodi:docname="recordpatch.svg"
   inkscape:export-filename="/home/olaf/src/cinelerra-gg/cin5/cinelerra-5.1/plugins/theme_neophyte/data/recordpatch.png"
   inkscape:export-xdpi="96"
   inkscape:export-ydpi="96">
  <metadata
     id="metadata8">
    <rdf:RDF>
      <cc:Work
         rdf:about="">
        <dc:format>image/svg+xml</dc:format>
        <dc:type
           rdf:resource="http://purl.org/dc/dcmitype/StillImage" />
        <dc:title />
      </cc:Work>
    </rdf:RDF>
  </metadata>
  <defs
     id="defs6" />
  <sodipodi:namedview
     pagecolor="#ffffff"
     bordercolor="#666666"
     borderopacity="1"
     objecttolerance="10"
     gridtolerance="10"
     guidetolerance="10"
     inkscape:pageopacity="0"
     inkscape:pageshadow="2"
     inkscape:window-width="1316"
     inkscape:window-height="744"
     id="namedview4"
     showgrid="false"
     inkscape:zoom="13.882353"
     inkscape:cx="12.675848"
     inkscape:cy="5.4745763"
     inkscape:window-x="50"
     inkscape:window-y="24"
     inkscape:window-maximized="1"
     inkscape:current-layer="svg2" />
  <path
     style="fill:none;stroke:none;stroke-width:0.10000000000000001;stroke-miterlimit:4;stroke-opacity:1;stroke-dasharray:none;opacity:1"
     d="M 13.03125 2 C 10.636342 2 8.6550796 3.5699387 8.53125 5.53125 C 8.52874 5.570303 8.5322492 5.5856401 8.53125 5.625 L 8.53125 7.8125 L 8.3125 7.8125 C 7.5857504 7.8125 7 8.3982504 7 9.125 L 7 13.6875 C 7 14.41425 7.5857504 15 8.3125 15 L 17.6875 15 C 18.41425 15 19 14.41425 19 13.6875 L 19 9.125 C 19 8.3982504 18.41425 7.8125 17.6875 7.8125 L 10.03125 7.8125 L 10.03125 5.625 L 10.03125 5.53125 C 10.154945 4.2567273 11.463154 3.25 13.03125 3.25 C 14.59763 3.25 15.842652 4.2587138 15.96875 5.53125 L 17.5 5.53125 C 17.377121 3.569197 15.426802 2 13.03125 2 z "
     id="rect3456" />
</svg>
