<?xml version="1.0" encoding="UTF-8" standalone="no"?>
<!-- Created with Inkscape (http://www.inkscape.org/) -->

<svg
   xmlns:dc="http://purl.org/dc/elements/1.1/"
   xmlns:cc="http://creativecommons.org/ns#"
   xmlns:rdf="http://www.w3.org/1999/02/22-rdf-syntax-ns#"
   xmlns:svg="http://www.w3.org/2000/svg"
   xmlns="http://www.w3.org/2000/svg"
   xmlns:xlink="http://www.w3.org/1999/xlink"
   xmlns:sodipodi="http://sodipodi.sourceforge.net/DTD/sodipodi-0.dtd"
   xmlns:inkscape="http://www.inkscape.org/namespaces/inkscape"
   width="30"
   height="25"
   viewBox="0 0 7.9375 6.6145835"
   version="1.1"
   id="svg1396"
   inkscape:version="0.92.4 (5da689c313, 2019-01-14)"
   sodipodi:docname="shbtn_hi.svg"
   inkscape:export-filename="/home/olaf/Wiki/src/cinelerra-gg.org/cinelerra/cinelerra-5.1/plugins/theme_neophyte-olaf/data/shbtn_hi.png"
   inkscape:export-xdpi="96"
   inkscape:export-ydpi="96">
  <title
     id="title1960">shbtn_up</title>
  <defs
     id="defs1390">
    <linearGradient
       id="linearGradient1817">
      <stop
         id="stop1852"
         offset="0"
         style="stop-color:#404040;stop-opacity:1" />
      <stop
         id="stop1854"
         offset="1"
         style="stop-color:#151515;stop-opacity:1" />
    </linearGradient>
    <linearGradient
       id="d"
       y1="503.79999"
       x1="399.57001"
       y2="528.79999"
       x2="424.57001"
       gradientUnits="userSpaceOnUse"
       gradientTransform="matrix(0.13227513,0,0,0.13227513,-38.899716,225.80488)">
      <stop
         stop-color="#292c2f"
         id="stop17" />
      <stop
         offset="1"
         stop-opacity="0"
         id="stop19" />
    </linearGradient>
    <linearGradient
       inkscape:collect="always"
       xlink:href="#a-3"
       id="linearGradient1167"
       gradientUnits="userSpaceOnUse"
       gradientTransform="matrix(0.13227513,0,0,0.13227513,-38.899716,225.80488)"
       y1="542.69"
       x2="0"
       y2="503.79999" />
    <linearGradient
       id="a-3"
       y1="542.69"
       y2="503.79999"
       x2="0"
       gradientUnits="userSpaceOnUse"
       gradientTransform="matrix(0.13227513,0,0,0.13227513,-38.899716,225.80488)">
      <stop
         stop-color="#c6cdd1"
         id="stop2-3" />
      <stop
         offset="1"
         stop-color="#e0e5e7"
         id="stop4-8"
         style="stop-color:#f0f0f0;stop-opacity:1" />
    </linearGradient>
    <linearGradient
       inkscape:collect="always"
       xlink:href="#c-0"
       id="linearGradient1169"
       gradientUnits="userSpaceOnUse"
       gradientTransform="matrix(0.13227513,0,0,0.13227513,11.969331,291.91599)"
       y1="42"
       x2="0"
       y2="6" />
    <linearGradient
       id="c-0"
       y1="42"
       y2="6"
       x2="0"
       gradientUnits="userSpaceOnUse"
       gradientTransform="matrix(0.13227513,0,0,0.13227513,11.969331,291.91599)">
      <stop
         stop-color="#c61423"
         id="stop12-5"
         style="stop-color:#aa0000;stop-opacity:1" />
      <stop
         offset="1"
         stop-color="#dc2b41"
         id="stop14-6"
         style="stop-color:#aa0000;stop-opacity:1" />
    </linearGradient>
    <linearGradient
       inkscape:collect="always"
       xlink:href="#d"
       id="linearGradient1171"
       gradientUnits="userSpaceOnUse"
       gradientTransform="matrix(0.13227513,0,0,0.13227513,-38.899716,225.80488)"
       x1="399.57001"
       y1="503.79999"
       x2="424.57001"
       y2="528.79999" />
    <linearGradient
       inkscape:collect="always"
       xlink:href="#b-0"
       id="linearGradient1173"
       gradientUnits="userSpaceOnUse"
       gradientTransform="matrix(0.13200264,0,0,0.13324074,-38.799187,225.34456)"
       y1="44"
       x2="0"
       y2="4" />
    <linearGradient
       id="b-0"
       y1="44"
       y2="4"
       gradientUnits="userSpaceOnUse"
       x2="0"
       gradientTransform="matrix(0.13200264,0,0,0.13324074,-38.799187,225.34456)">
      <stop
         stop-color="#cea476"
         id="stop7-0"
         style="stop-color:#e9bb00;stop-opacity:1" />
      <stop
         offset="1"
         stop-color="#dab58b"
         id="stop9-4"
         style="stop-color:#ffffff;stop-opacity:1" />
    </linearGradient>
    <linearGradient
       inkscape:collect="always"
       xlink:href="#linearGradient1817"
       id="linearGradient1811-8-4-8-1-6"
       x1="44.737286"
       y1="1.0084742"
       x2="44.737286"
       y2="18.728813"
       gradientUnits="userSpaceOnUse"
       gradientTransform="matrix(0.29390957,0,0,0.37169004,-9.2945477,290.05141)" />
  </defs>
  <sodipodi:namedview
     id="base"
     pagecolor="#ffffff"
     bordercolor="#666666"
     borderopacity="1.0"
     inkscape:pageopacity="0.0"
     inkscape:pageshadow="2"
     inkscape:zoom="12.1"
     inkscape:cx="-42.322987"
     inkscape:cy="5.5481784"
     inkscape:document-units="px"
     inkscape:current-layer="layer1"
     showgrid="false"
     units="px"
     inkscape:showpageshadow="false"
     showguides="true"
     inkscape:guide-bbox="true"
     inkscape:lockguides="true"
     inkscape:window-width="2494"
     inkscape:window-height="1407"
     inkscape:window-x="0"
     inkscape:window-y="0"
     inkscape:window-maximized="1">
    <sodipodi:guide
       position="3.3072917,7.2487089"
       orientation="1,0"
       id="guide1996"
       inkscape:locked="true"
       inkscape:label=""
       inkscape:color="rgb(0,0,255)" />
    <sodipodi:guide
       position="6.6145833,0.010933196"
       orientation="1,0"
       id="guide1998"
       inkscape:locked="true" />
    <sodipodi:guide
       position="6.6145832,0.010933196"
       orientation="0,1"
       id="guide2000"
       inkscape:locked="true" />
    <inkscape:grid
       type="xygrid"
       id="grid2241" />
    <sodipodi:guide
       position="6.6145832,-7.6488686"
       orientation="0,1"
       id="guide2243"
       inkscape:locked="true" />
    <sodipodi:guide
       position="6.6145832,-15.258378"
       orientation="0,1"
       id="guide2245"
       inkscape:locked="true" />
  </sodipodi:namedview>
  <metadata
     id="metadata1393">
    <rdf:RDF>
      <cc:Work
         rdf:about="">
        <dc:format>image/svg+xml</dc:format>
        <dc:type
           rdf:resource="http://purl.org/dc/dcmitype/StillImage" />
        <dc:title>shbtn_up</dc:title>
        <dc:date>2018-08-01</dc:date>
        <dc:creator>
          <cc:Agent>
            <dc:title>Olaf</dc:title>
          </cc:Agent>
        </dc:creator>
        <dc:description>2018-08-01: new.</dc:description>
        <dc:source>Olaf</dc:source>
        <dc:relation>shbtn_dn, shbtn_hi</dc:relation>
        <dc:language>deu</dc:language>
        <dc:subject>
          <rdf:Bag>
            <rdf:li>Neophyte</rdf:li>
            <rdf:li>Cinelerra</rdf:li>
            <rdf:li>Theme</rdf:li>
          </rdf:Bag>
        </dc:subject>
      </cc:Work>
    </rdf:RDF>
  </metadata>
  <g
     inkscape:label="Ebene 1"
     inkscape:groupmode="layer"
     id="layer1"
     transform="translate(0,-290.3854)">
    <text
       xml:space="preserve"
       style="font-style:normal;font-variant:normal;font-weight:normal;font-stretch:normal;font-size:2.82222223px;line-height:6.61458302px;font-family:Andika;-inkscape-font-specification:'Andika, Normal';font-variant-ligatures:normal;font-variant-caps:normal;font-variant-numeric:normal;font-feature-settings:normal;text-align:start;letter-spacing:0px;word-spacing:0px;writing-mode:lr-tb;text-anchor:start;fill:#000000;fill-opacity:1;stroke:none;stroke-width:0.26458332"
       x="-14.737009"
       y="294.0752"
       id="text2249"><tspan
         sodipodi:role="line"
         id="tspan2247"
         x="-14.737009"
         y="294.0752"
         style="font-style:normal;font-variant:normal;font-weight:normal;font-stretch:normal;font-size:2.82222223px;font-family:Andika;-inkscape-font-specification:'Andika, Normal';font-variant-ligatures:normal;font-variant-caps:normal;font-variant-numeric:normal;font-feature-settings:normal;text-align:start;writing-mode:lr-tb;text-anchor:start;stroke-width:0.26458332">shbtn_hi</tspan></text>
    <rect
       style="fill:url(#linearGradient1811-8-4-8-1-6);fill-opacity:1;stroke:#141414;stroke-width:0.29585132;stroke-miterlimit:4;stroke-dasharray:none;stroke-opacity:1"
       id="rect3597-9-8-3-6-7"
       width="7.6416488"
       height="6.3187318"
       x="0.14792566"
       y="290.53333" />
    <rect
       y="290.79596"
       x="0.41055304"
       height="5.793478"
       width="7.116394"
       id="rect3597-5-7-9-4-8-9-8-0-2-7-9-1-5"
       style="fill:none;fill-opacity:1;stroke:#5f8dd3;stroke-width:0.2919392;stroke-miterlimit:4;stroke-dasharray:none;stroke-opacity:1" />
    <g
       transform="matrix(0.95006907,0,0,0.94999999,-10.418901,13.356337)"
       id="g1165">
      <path
         id="path1153"
         d="m 15.143934,292.44509 c -1.465609,0 -2.645503,1.17989 -2.645503,2.6455 0,1.46561 1.179894,2.64551 2.645503,2.64551 1.465608,0 2.645502,-1.1799 2.645502,-2.64551 0,-1.46561 -1.179894,-2.6455 -2.645502,-2.6455 m 0,1.46958 c 0.651323,0 1.175793,0.52434 1.175793,1.17579 0,0.65132 -0.524338,1.17579 -1.175793,1.17579 -0.651323,0 -1.175794,-0.52433 -1.175794,-1.17579 0,-0.65132 0.524339,-1.17579 1.175794,-1.17579"
         inkscape:connector-curvature="0"
         style="fill:url(#linearGradient1167);stroke-width:0.37037036;stroke-opacity:0.55" />
      <path
         id="path1155"
         d="m 13.982955,292.71493 c -0.596031,0.29061 -1.064814,0.79762 -1.304894,1.42037 l 1.309259,0.74815 c 0.07407,-0.41825 0.367328,-0.7578 0.757937,-0.89802 z m 2.32209,0 -0.762434,1.2705 c 0.390741,0.14022 0.683995,0.47977 0.757937,0.89802 l 1.309259,-0.74815 c -0.240476,-0.62328 -0.708862,-1.12976 -1.304894,-1.42037 m -2.317593,2.58347 -1.309259,0.74815 c 0.240476,0.62328 0.708863,1.12976 1.304894,1.42037 l 0.762434,-1.27051 c -0.390741,-0.14021 -0.683995,-0.47976 -0.757936,-0.89801 m 2.313227,0 c -0.07407,0.41825 -0.367328,0.7578 -0.757936,0.89801 l 0.762433,1.27051 c 0.596032,-0.29061 1.064815,-0.79762 1.304895,-1.42037 z"
         inkscape:connector-curvature="0"
         style="fill:url(#linearGradient1169);fill-rule:evenodd;stroke-width:0.13227513" />
      <path
         style="fill:#99a1a7;stroke-width:0.37037036;stroke-opacity:0.55"
         inkscape:connector-curvature="0"
         d="m 12.499754,295.02446 c -5.29e-4,0.0221 -0.0016,0.0439 -0.0016,0.0661 0,1.46561 1.179894,2.64551 2.645503,2.64551 1.465608,0 2.645502,-1.1799 2.645502,-2.64551 0,-0.0222 -0.0011,-0.044 -0.0016,-0.0661 -0.03505,1.43465 -1.201058,2.57936 -2.643915,2.57936 -1.443387,0 -2.608995,-1.14471 -2.643916,-2.57936"
         id="path1157" />
      <path
         style="opacity:0.2;fill:url(#linearGradient1171);fill-rule:evenodd;stroke-width:0.13227513"
         inkscape:connector-curvature="0"
         d="m 13.424357,293.23874 -0.106481,0.39683 -0.290344,0.5291 -0.132275,0.39682 -0.132275,0.5291 0.132275,0.5291 0.396825,1.19048 h -0.132275 l 0.393519,0.39352 c 0.44246,0.33307 0.991799,0.53307 1.591269,0.53307 0.800265,0 1.514022,-0.35344 1.998678,-0.91178 l -1.045238,-1.04523 c -0.213228,0.29523 -0.559524,0.4873 -0.953043,0.4873 -0.651322,0 -1.175793,-0.52434 -1.175793,-1.1758 0,-0.39351 0.192063,-0.73981 0.487301,-0.95304 l -0.898809,-0.89881 z"
         id="path1159" />
      <path
         style="fill:url(#linearGradient1173);fill-opacity:1;stroke-width:0.37037036;stroke-opacity:0.55"
         inkscape:connector-curvature="0"
         d="m 13.35822,293.37102 c -0.03664,0 -0.06614,0.0295 -0.06614,0.0661 0,0.023 0.0123,0.0422 0.03003,0.054 -0.351455,0.45212 -0.564021,1.01998 -0.564021,1.6418 0,0.6041 0.202381,1.15569 0.536111,1.60185 -5.29e-4,0.003 -0.0021,0.006 -0.0021,0.01 0,0.0366 0.0295,0.0661 0.06614,0.0661 0.03664,0 0.06614,-0.0295 0.06614,-0.0661 0,-0.004 -0.0016,-0.008 -0.0024,-0.0122 h 0.02116 c -0.0061,-0.0183 -0.01428,-0.0344 -0.025,-0.0452 -0.330026,-0.42857 -0.528042,-0.96653 -0.528042,-1.5537 0,-0.0734 0.0033,-0.14603 0.0093,-0.21772 0.04246,-0.50225 0.230027,-0.96072 0.518783,-1.33598 0.04484,-0.0452 0.05132,-0.17857 0,-0.20847 -0.0052,0.006 -0.0097,0.0124 -0.01468,0.0184 -0.01177,-0.0113 -0.02751,-0.0184 -0.04524,-0.0184 m 3.501719,0 c -0.05132,0.0299 -0.04484,0.16323 0,0.20847 0.288757,0.375 0.476323,0.83346 0.518783,1.33598 0.0061,0.0717 0.0093,0.14444 0.0093,0.21772 0,0.58717 -0.198016,1.12513 -0.528043,1.5537 -0.01071,0.0109 -0.01905,0.027 -0.025,0.0452 h 0.01521 l 0.01376,0.0139 c 9.26e-4,0.0349 0.0287,0.0626 0.06349,0.0638 l 5.29e-4,5.3e-4 2.64e-4,-2.7e-4 c 5.29e-4,0 0.0011,2.7e-4 0.0016,2.7e-4 0.03664,0 0.06614,-0.0295 0.06614,-0.0661 0,-0.007 -0.0021,-0.0138 -0.0041,-0.0201 0.3291,-0.44378 0.528307,-0.99153 0.528307,-1.59127 0,-0.61984 -0.211112,-1.18598 -0.560582,-1.63743 0.02143,-0.011 0.03637,-0.0325 0.03637,-0.0583 0,-0.0366 -0.0295,-0.0661 -0.06614,-0.0661 -0.0205,0 -0.03796,0.01 -0.05013,0.0246 -0.0067,-0.008 -0.0127,-0.0167 -0.01958,-0.0246"
         id="path1161" />
      <path
         id="path1163"
         d="m 13.35822,293.23874 c -0.109921,0 -0.198413,0.0885 -0.198413,0.19841 0,0.10992 0.08849,0.19842 0.198413,0.19842 0.10992,0 0.198412,-0.0885 0.198412,-0.19842 0,-0.10992 -0.08849,-0.19841 -0.198412,-0.19841 m 3.571428,0 c -0.109921,0 -0.198413,0.0885 -0.198413,0.19841 0,0.10992 0.08849,0.19842 0.198413,0.19842 0.109921,0 0.198413,-0.0885 0.198413,-0.19842 0,-0.10992 -0.08849,-0.19841 -0.198413,-0.19841 m -3.571428,0.13228 c 0.03664,0 0.06614,0.0295 0.06614,0.0661 0,0.0366 -0.0295,0.0661 -0.06614,0.0661 -0.03664,0 -0.06614,-0.0295 -0.06614,-0.0661 0,-0.0366 0.0295,-0.0661 0.06614,-0.0661 m 3.571428,0 c 0.03664,0 0.06614,0.0295 0.06614,0.0661 0,0.0366 -0.0295,0.0661 -0.06614,0.0661 -0.03664,0 -0.06614,-0.0295 -0.06614,-0.0661 0,-0.0366 0.0295,-0.0661 0.06614,-0.0661 m -3.571428,3.1746 c -0.109921,0 -0.198413,0.0885 -0.198413,0.19841 0,0.10992 0.08849,0.19841 0.198413,0.19841 0.10992,0 0.198412,-0.0885 0.198412,-0.19841 0,-0.10992 -0.08849,-0.19841 -0.198412,-0.19841 m 3.571428,0 c -0.109921,0 -0.198413,0.0885 -0.198413,0.19841 0,0.10992 0.08849,0.19841 0.198413,0.19841 0.109921,0 0.198413,-0.0885 0.198413,-0.19841 0,-0.10992 -0.08849,-0.19841 -0.198413,-0.19841 m -3.571428,0.13227 c 0.03664,0 0.06614,0.0295 0.06614,0.0661 0,0.0366 -0.0295,0.0661 -0.06614,0.0661 -0.03664,0 -0.06614,-0.0295 -0.06614,-0.0661 0,-0.0366 0.0295,-0.0661 0.06614,-0.0661 m 3.571428,0 c 0.03664,0 0.06614,0.0295 0.06614,0.0661 0,0.0366 -0.0295,0.0661 -0.06614,0.0661 -0.03664,0 -0.06614,-0.0295 -0.06614,-0.0661 0,-0.0366 0.0295,-0.0661 0.06614,-0.0661"
         inkscape:connector-curvature="0"
         style="fill:#7e1722;stroke-width:0.37037036;stroke-opacity:0.55" />
    </g>
  </g>
</svg>
