<?xml version="1.0" encoding="UTF-8" standalone="no"?>
<!-- Created with Inkscape (http://www.inkscape.org/) -->

<svg
   xmlns:dc="http://purl.org/dc/elements/1.1/"
   xmlns:cc="http://creativecommons.org/ns#"
   xmlns:rdf="http://www.w3.org/1999/02/22-rdf-syntax-ns#"
   xmlns:svg="http://www.w3.org/2000/svg"
   xmlns="http://www.w3.org/2000/svg"
   xmlns:xlink="http://www.w3.org/1999/xlink"
   xmlns:sodipodi="http://sodipodi.sourceforge.net/DTD/sodipodi-0.dtd"
   xmlns:inkscape="http://www.inkscape.org/namespaces/inkscape"
   id="svg2"
   version="1.1"
   inkscape:version="0.92.3 (2405546, 2018-03-11)"
   width="20"
   height="20"
   sodipodi:docname="statusbar_cancel_hi.svg"
   inkscape:export-filename="/home/olaf/src/cinelerra-gg/cin5/cinelerra-5.1/plugins/theme_neophyte/data/statusbar_cancel_hi.png"
   inkscape:export-xdpi="96"
   inkscape:export-ydpi="96">
  <metadata
     id="metadata8">
    <rdf:RDF>
      <cc:Work
         rdf:about="">
        <dc:format>image/svg+xml</dc:format>
        <dc:type
           rdf:resource="http://purl.org/dc/dcmitype/StillImage" />
        <dc:title></dc:title>
        <dc:date>2018-08-01</dc:date>
        <dc:creator>
          <cc:Agent>
            <dc:title>Olaf</dc:title>
          </cc:Agent>
        </dc:creator>
        <dc:description>2018-08-01: adapted. </dc:description>
      </cc:Work>
    </rdf:RDF>
  </metadata>
  <defs
     id="defs6">
    <linearGradient
       y2="21.527676"
       x2="94.546799"
       y1="21.527676"
       x1="48.907528"
       gradientTransform="matrix(0,1.000001,-1.000001,0,93.25488,-50.19949)"
       gradientUnits="userSpaceOnUse"
       id="linearGradient6943"
       xlink:href="#linearGradient9647-8"
       inkscape:collect="always" />
    <linearGradient
       id="linearGradient9647-8">
      <stop
         id="stop9649-4"
         offset="0"
         style="stop-color:#fe4747;stop-opacity:1;" />
      <stop
         style="stop-color:#c80909;stop-opacity:1;"
         offset="1"
         id="stop3219-8" />
    </linearGradient>
    <linearGradient
       id="linearGradient46073">
      <stop
         style="stop-color:#ff1717;stop-opacity:1;"
         offset="0"
         id="stop46071" />
      <stop
         style="stop-color:#a40000;stop-opacity:1;"
         offset="1"
         id="stop46069" />
    </linearGradient>
    <radialGradient
       inkscape:collect="always"
       xlink:href="#linearGradient46073"
       id="radialGradient46063-0"
       cx="-32.701519"
       cy="75.902191"
       fx="-32.701519"
       fy="75.902191"
       r="23.999966"
       gradientTransform="matrix(0.31250048,0,0,0.31250048,20.21924,-13.719471)"
       gradientUnits="userSpaceOnUse" />
  </defs>
  <sodipodi:namedview
     pagecolor="#ffffff"
     bordercolor="#666666"
     borderopacity="1"
     objecttolerance="10"
     gridtolerance="10"
     guidetolerance="10"
     inkscape:pageopacity="0"
     inkscape:pageshadow="2"
     inkscape:window-width="1280"
     inkscape:window-height="750"
     id="namedview4"
     showgrid="false"
     inkscape:zoom="5.3914425"
     inkscape:cx="-45.042178"
     inkscape:cy="9.1355932"
     inkscape:window-x="0"
     inkscape:window-y="25"
     inkscape:window-maximized="1"
     inkscape:current-layer="layer6"
     inkscape:showpageshadow="false" />
  <g
     inkscape:groupmode="layer"
     id="layer5"
     inkscape:label="Layer 1"
     style="display:none"
     sodipodi:insensitive="true">
    <rect
       y="0"
       x="0"
       height="20"
       width="20"
       id="rect3597"
       style="fill:#4d4d4d;fill-opacity:1;stroke:none" />
    <g
       id="g3760"
       transform="translate(-91.525424,3.7288136)">
      <path
         id="path3762"
         d="M 17.777462,5.0345277 14.965474,2.2225394 10.000001,7.1880134 5.0345273,2.2225397 2.2225385,5.034528 l 4.9654737,4.965473 -4.9654734,4.965474 2.8119885,2.811987 4.9654737,-4.965472 4.965473,4.965472 2.811989,-2.811987 -4.965474,-4.965474 z"
         style="fill:#1a1a1a;fill-opacity:1;fill-rule:evenodd;stroke:#333333;stroke-width:0.44507602;stroke-linecap:butt;stroke-linejoin:round;stroke-miterlimit:4;stroke-dasharray:none;stroke-dashoffset:0;stroke-opacity:1"
         inkscape:connector-curvature="0" />
      <g
         id="g3764">
        <path
           style="fill:#fffeff;fill-opacity:0.13804716;fill-rule:evenodd;stroke:none"
           d="M 17.465844,5.0350232 14.9638,2.5334379 9.999987,7.491987 5.0344195,2.5381669 2.5725318,5.0476556 7.494153,9.9947517 4.4083247,13.094216 c 0,0 1.6680492,-0.259107 2.9686767,-0.877946 1.3006281,-0.618838 0.9336158,-1.540894 3.4087386,-2.204012 2.479863,-0.6662793 3.142888,-1.4452762 3.142888,-1.4452762 l 3.537189,-3.5319815 z"
           id="path3766"
           sodipodi:nodetypes="ccccccczzcc"
           inkscape:connector-curvature="0" />
        <path
           style="fill:none;stroke:#cccccc;stroke-width:0.42395109;stroke-linecap:butt;stroke-linejoin:miter;stroke-miterlimit:4;stroke-dasharray:none;stroke-dashoffset:0;stroke-opacity:1"
           d="M 17.173001,5.0369095 14.978594,2.8235339 9.9964737,7.7993317 5.0280153,2.8308734 2.8305066,5.0283816 l 4.9747803,4.9747794 -4.9779436,4.952658 2.2102136,2.210213 4.9621415,-4.968459 4.9937476,4.968456 2.176397,-2.189037 -4.946332,-4.9969093 4.949497,-4.9431732 z"
           id="path3768"
           sodipodi:nodetypes="ccccccccccccc"
           inkscape:connector-curvature="0" />
      </g>
    </g>
    <g
       id="g3178"
       transform="matrix(0.33333343,0,0,0.33333343,-0.37774362,1.603151)">
      <g
         transform="translate(0,2)"
         inkscape:label="Shadow"
         id="layer2" />
      <g
         transform="translate(0,2)"
         inkscape:label="Layer 1"
         id="layer1" />
      <g
         transform="translate(0,2)"
         inkscape:label="Error Box"
         id="layer3" />
      <g
         transform="translate(0,2)"
         inkscape:label="Glossy Shine"
         id="layer4">
        <g
           transform="matrix(0.858316,-0.858316,0.858316,0.858316,-54.908959,66.277556)"
           id="g6848">
          <path
             style="fill:url(#linearGradient6943);fill-opacity:1;fill-rule:evenodd;stroke:#a40000;stroke-width:1.1000011;stroke-linecap:butt;stroke-linejoin:round;stroke-miterlimit:4;stroke-dasharray:none;stroke-dashoffset:0;stroke-opacity:1"
             d="m 93.996843,26.44197 v -9.828504 l -17.355398,2e-6 V -0.74193099 l -9.828505,-9.2e-7 10e-7,17.35539791 H 49.457543 l 2e-6,9.828503 17.355396,3e-6 2e-6,17.355394 9.828503,3e-6 -10e-7,-17.355399 z"
             id="path2787-7"
             inkscape:connector-curvature="0" />
          <path
             style="fill:#fffeff;fill-opacity:0.13804716;fill-rule:evenodd;stroke:none"
             d="m 93.451391,25.89825 -8.01e-4,-8.74438 -17.340396,-0.0092 -0.02053,-17.33519703 -8.688015,0.0831879 -0.04452,17.24664513 -10.809464,0.02383 c 0,0 3.367913,2.462278 6.722386,3.653778 3.354474,1.191501 4.324472,-1.061284 9.808885,2.105388 5.498224,3.169434 8.018312,2.96676 8.018312,2.96676 l 12.354135,0.0091 z"
             id="path6779-4"
             sodipodi:nodetypes="ccccccczzcc"
             inkscape:connector-curvature="0" />
          <path
             style="fill:none;stroke:#dd5843;stroke-width:1.047791;stroke-linecap:butt;stroke-linejoin:miter;stroke-miterlimit:4;stroke-dasharray:none;stroke-dashoffset:0;stroke-opacity:1"
             d="m 92.93632,25.389772 0.03315,-7.703074 -17.402534,-0.01105 V 0.30981713 l -7.680765,-9.6e-7 10e-7,17.38792683 -17.354794,-0.04419 2e-6,7.72517 17.354792,-0.01104 0.0442,17.410022 7.629065,-0.02209 0.08839,-17.376882 17.288504,0.01105 z"
             id="path6842-1"
             sodipodi:nodetypes="ccccccccccccc"
             inkscape:connector-curvature="0" />
        </g>
      </g>
    </g>
  </g>
  <g
     inkscape:groupmode="layer"
     id="layer6"
     inkscape:label="Layer 2">
    <text
       xml:space="preserve"
       style="font-style:normal;font-variant:normal;font-weight:normal;font-stretch:normal;font-size:10.66666698px;line-height:25px;font-family:Andika;-inkscape-font-specification:'Andika, Normal';font-variant-ligatures:normal;font-variant-caps:normal;font-variant-numeric:normal;font-feature-settings:normal;text-align:start;letter-spacing:0px;word-spacing:0px;writing-mode:lr-tb;text-anchor:start;fill:#000000;fill-opacity:1;stroke:none"
       x="-84.202766"
       y="-17.358343"
       id="text2863-1"><tspan
         sodipodi:role="line"
         id="tspan2861-8"
         x="-84.202766"
         y="-17.358343">see: statusbar_cancel_up</tspan></text>
    <path
       inkscape:connector-curvature="0"
       style="opacity:0.9;fill:url(#radialGradient46063-0);fill-opacity:1;fill-rule:evenodd;stroke:#800000;stroke-width:0.41725931;stroke-linecap:butt;stroke-linejoin:round;stroke-miterlimit:4;stroke-dasharray:none;stroke-dashoffset:0;stroke-opacity:1"
       d="M 17.291379,5.344865 14.655137,2.708621 10.000001,7.36376 5.3448629,2.708622 2.7086208,5.344865 l 4.6551368,4.655136 -4.6551368,4.655137 2.6362421,2.636241 4.6551381,-4.655136 4.655136,4.655136 2.636242,-2.636241 -4.655137,-4.655137 z"
       id="path2787-9-6" />
  </g>
</svg>
