<?xml version="1.0" encoding="UTF-8" standalone="no"?>
<!-- Created with Inkscape (http://www.inkscape.org/) -->

<svg
   xmlns:dc="http://purl.org/dc/elements/1.1/"
   xmlns:cc="http://creativecommons.org/ns#"
   xmlns:rdf="http://www.w3.org/1999/02/22-rdf-syntax-ns#"
   xmlns:svg="http://www.w3.org/2000/svg"
   xmlns="http://www.w3.org/2000/svg"
   xmlns:xlink="http://www.w3.org/1999/xlink"
   xmlns:sodipodi="http://sodipodi.sourceforge.net/DTD/sodipodi-0.dtd"
   xmlns:inkscape="http://www.inkscape.org/namespaces/inkscape"
   id="svg2"
   version="1.1"
   inkscape:version="0.92.3 (2405546, 2018-03-11)"
   width="20"
   height="20"
   sodipodi:docname="statusbar_cancel_dn.svg"
   inkscape:export-filename="/home/olaf/src/cinelerra-gg/cin5/cinelerra-5.1/plugins/theme_neophyte/data/statusbar_cancel_dn.png"
   inkscape:export-xdpi="96"
   inkscape:export-ydpi="96">
  <metadata
     id="metadata8">
    <rdf:RDF>
      <cc:Work
         rdf:about="">
        <dc:format>image/svg+xml</dc:format>
        <dc:type
           rdf:resource="http://purl.org/dc/dcmitype/StillImage" />
        <dc:title />
      </cc:Work>
    </rdf:RDF>
  </metadata>
  <defs
     id="defs6">
    <radialGradient
       inkscape:collect="always"
       xlink:href="#linearGradient46073"
       id="radialGradient46063-8"
       cx="-32.701519"
       cy="75.902191"
       fx="-32.701519"
       fy="75.902191"
       r="23.999966"
       gradientTransform="matrix(0.31250048,0,0,0.31250048,20.21924,-13.719471)"
       gradientUnits="userSpaceOnUse" />
    <linearGradient
       id="linearGradient46073">
      <stop
         style="stop-color:#ff1717;stop-opacity:1;"
         offset="0"
         id="stop46071" />
      <stop
         style="stop-color:#a40000;stop-opacity:1;"
         offset="1"
         id="stop46069" />
    </linearGradient>
  </defs>
  <sodipodi:namedview
     pagecolor="#ffffff"
     bordercolor="#666666"
     borderopacity="1"
     objecttolerance="10"
     gridtolerance="10"
     guidetolerance="10"
     inkscape:pageopacity="0"
     inkscape:pageshadow="2"
     inkscape:window-width="1280"
     inkscape:window-height="721"
     id="namedview4"
     showgrid="false"
     inkscape:zoom="5.3914425"
     inkscape:cx="-94.194144"
     inkscape:cy="9.1355932"
     inkscape:window-x="0"
     inkscape:window-y="27"
     inkscape:window-maximized="1"
     inkscape:current-layer="layer10" />
  <g
     inkscape:groupmode="layer"
     id="layer9"
     inkscape:label="Layer 1"
     sodipodi:insensitive="true"
     style="display:none">
    <rect
       y="0"
       x="0"
       height="20"
       width="20"
       id="rect3597"
       style="fill:#4d4d4d;fill-opacity:1;stroke:none" />
    <path
       id="path2787"
       d="M 15.777461,5.0345277 12.965474,2.2225394 8.0000005,7.1880134 3.0345268,2.2225397 0.222538,5.034528 l 4.9654737,4.965473 -4.9654734,4.965474 2.8119885,2.811987 4.9654737,-4.965472 4.9654735,4.965472 2.811989,-2.811987 -4.965474,-4.965474 z"
       style="fill:#1a1a1a;fill-opacity:1;fill-rule:evenodd;stroke:#333333;stroke-width:0.44507602;stroke-linecap:butt;stroke-linejoin:round;stroke-miterlimit:4;stroke-dasharray:none;stroke-dashoffset:0;stroke-opacity:1"
       inkscape:connector-curvature="0" />
    <path
       sodipodi:nodetypes="ccccccczzcc"
       id="path6779"
       d="M 15.465844,5.0350232 12.9638,2.5334379 7.9999865,7.491987 3.034419,2.5381669 0.5725313,5.0476556 5.4941525,9.9947517 2.4083242,13.094216 c 0,0 1.6680492,-0.259107 2.9686767,-0.877946 C 6.677629,11.597432 6.3106167,10.675376 8.7857395,10.012258 11.265602,9.3459787 11.928627,8.5669818 11.928627,8.5669818 l 3.53719,-3.5319815 z"
       style="fill:#fffeff;fill-opacity:0.13804716;fill-rule:evenodd;stroke:none"
       inkscape:connector-curvature="0" />
    <path
       sodipodi:nodetypes="ccccccccccccc"
       id="path6842"
       d="M 15.173,5.0369095 12.978593,2.8235339 7.9964732,7.7993317 3.0280148,2.8308734 0.8305061,5.0283816 l 4.9747803,4.9747794 -4.9779436,4.952658 2.2102136,2.210213 4.9621415,-4.968459 4.9937471,4.968456 2.176398,-2.189037 -4.946332,-4.9969093 4.949496,-4.9431732 z"
       style="fill:none;stroke:#4d4d4d;stroke-width:0.42395109;stroke-linecap:butt;stroke-linejoin:miter;stroke-miterlimit:4;stroke-dasharray:none;stroke-dashoffset:0;stroke-opacity:1"
       inkscape:connector-curvature="0" />
    <g
       id="g3760"
       transform="translate(-91.525424,3.7288136)">
      <path
         id="path3762"
         d="M 17.777462,5.0345277 14.965474,2.2225394 10.000001,7.1880134 5.0345273,2.2225397 2.2225385,5.034528 l 4.9654737,4.965473 -4.9654734,4.965474 2.8119885,2.811987 4.9654737,-4.965472 4.965473,4.965472 2.811989,-2.811987 -4.965474,-4.965474 z"
         style="fill:#1a1a1a;fill-opacity:1;fill-rule:evenodd;stroke:#333333;stroke-width:0.44507602;stroke-linecap:butt;stroke-linejoin:round;stroke-miterlimit:4;stroke-dasharray:none;stroke-dashoffset:0;stroke-opacity:1"
         inkscape:connector-curvature="0" />
      <g
         id="g3764">
        <path
           style="fill:#fffeff;fill-opacity:0.13804716;fill-rule:evenodd;stroke:none"
           d="M 17.465844,5.0350232 14.9638,2.5334379 9.999987,7.491987 5.0344195,2.5381669 2.5725318,5.0476556 7.494153,9.9947517 4.4083247,13.094216 c 0,0 1.6680492,-0.259107 2.9686767,-0.877946 1.3006281,-0.618838 0.9336158,-1.540894 3.4087386,-2.204012 2.479863,-0.6662793 3.142888,-1.4452762 3.142888,-1.4452762 l 3.537189,-3.5319815 z"
           id="path3766"
           sodipodi:nodetypes="ccccccczzcc"
           inkscape:connector-curvature="0" />
        <path
           style="fill:none;stroke:#cccccc;stroke-width:0.42395109;stroke-linecap:butt;stroke-linejoin:miter;stroke-miterlimit:4;stroke-dasharray:none;stroke-dashoffset:0;stroke-opacity:1"
           d="M 17.173001,5.0369095 14.978594,2.8235339 9.9964737,7.7993317 5.0280153,2.8308734 2.8305066,5.0283816 l 4.9747803,4.9747794 -4.9779436,4.952658 2.2102136,2.210213 4.9621415,-4.968459 4.9937476,4.968456 2.176397,-2.189037 -4.946332,-4.9969093 4.949497,-4.9431732 z"
           id="path3768"
           sodipodi:nodetypes="ccccccccccccc"
           inkscape:connector-curvature="0" />
      </g>
    </g>
  </g>
  <g
     inkscape:groupmode="layer"
     id="layer10"
     inkscape:label="Layer 2">
    <path
       inkscape:connector-curvature="0"
       style="fill:url(#radialGradient46063-8);fill-opacity:1;fill-rule:evenodd;stroke:#800000;stroke-width:0.41725931;stroke-linecap:butt;stroke-linejoin:round;stroke-miterlimit:4;stroke-dasharray:none;stroke-dashoffset:0;stroke-opacity:1"
       d="m 17.291379,5.3448649 -2.636242,-2.636244 -4.655136,4.655139 -4.655138,-4.655138 -2.636242,2.636243 4.655137,4.6551361 -4.655137,4.655137 2.636242,2.636241 4.655138,-4.655136 4.655136,4.655136 2.636242,-2.636241 -4.655137,-4.655137 z"
       id="path2787-9-6" />
  </g>
</svg>
