<?xml version="1.0" encoding="UTF-8" standalone="no"?>
<!-- Created with Inkscape (http://www.inkscape.org/) -->

<svg
   xmlns:dc="http://purl.org/dc/elements/1.1/"
   xmlns:cc="http://creativecommons.org/ns#"
   xmlns:rdf="http://www.w3.org/1999/02/22-rdf-syntax-ns#"
   xmlns:svg="http://www.w3.org/2000/svg"
   xmlns="http://www.w3.org/2000/svg"
   xmlns:xlink="http://www.w3.org/1999/xlink"
   xmlns:sodipodi="http://sodipodi.sourceforge.net/DTD/sodipodi-0.dtd"
   xmlns:inkscape="http://www.inkscape.org/namespaces/inkscape"
   id="svg2"
   version="1.1"
   inkscape:version="0.92.3 (2405546, 2018-03-11)"
   width="24"
   height="24"
   sodipodi:docname="waveform_rgb.svg"
   inkscape:export-filename="/home/olaf/src/cinelerra-gg/cin5/cinelerra-5.1/plugins/theme_neophyte-olaf/data/waveform_rgb.png"
   inkscape:export-xdpi="96"
   inkscape:export-ydpi="96">
  <title
     id="title912">waveform</title>
  <metadata
     id="metadata8">
    <rdf:RDF>
      <cc:Work
         rdf:about="">
        <dc:format>image/svg+xml</dc:format>
        <dc:type
           rdf:resource="http://purl.org/dc/dcmitype/StillImage" />
        <dc:title>waveform</dc:title>
        <dc:date>2018-11-25</dc:date>
        <dc:creator>
          <cc:Agent>
            <dc:title>Olaf</dc:title>
          </cc:Agent>
        </dc:creator>
        <dc:description>2018-11-25: überarbeitet u. blau 
2018-08-16: new. </dc:description>
        <dc:relation>cpanel_*</dc:relation>
      </cc:Work>
    </rdf:RDF>
  </metadata>
  <defs
     id="defs6" />
  <sodipodi:namedview
     pagecolor="#262626"
     bordercolor="#666666"
     borderopacity="1"
     objecttolerance="10"
     gridtolerance="10"
     guidetolerance="10"
     inkscape:pageopacity="0"
     inkscape:pageshadow="2"
     inkscape:window-width="2494"
     inkscape:window-height="1407"
     id="namedview4"
     showgrid="false"
     inkscape:zoom="17.913411"
     inkscape:cx="4.8239437"
     inkscape:cy="10.37078"
     inkscape:window-x="0"
     inkscape:window-y="0"
     inkscape:window-maximized="1"
     inkscape:current-layer="svg2"
     inkscape:showpageshadow="false" />
  <path
     style="fill:#ff0000;fill-opacity:1;stroke:#ff0000;stroke-width:0.68916911px;stroke-linecap:butt;stroke-linejoin:miter;stroke-opacity:1"
     d="M 2.3445838,7.7679774 V 3.7940007 c 0,0 3.5185033,-1.461994 6.043848,-1.4493327 3.5986512,0.018051 4.8058652,2.1935056 8.4024192,2.1506225 2.223204,-0.026499 4.864565,-1.4493325 4.864565,-1.4493325 v 4.254493 c 0,0 -4.034493,1.3615337 -6.633493,1.3090745 C 11.606132,8.5405806 10.484431,6.5531642 7.0617334,6.5524088 5.0357642,6.5519366 2.3445838,7.7679774 2.3445838,7.7679774 Z"
     id="path910"
     inkscape:connector-curvature="0"
     sodipodi:nodetypes="ccasccasc" />
  <path
     style="fill:#00ff00;fill-opacity:1;stroke:#00ff00;stroke-width:0.68916911px;stroke-linecap:butt;stroke-linejoin:miter;stroke-opacity:1"
     d="m 2.3445838,14.29017 v -3.973979 c 0,0 3.5185032,-1.4619955 6.0438479,-1.4493347 3.5986513,0.018047 4.8058653,2.1935077 8.4024193,2.1506237 2.223204,-0.02642 4.864565,-1.4493337 4.864565,-1.4493337 v 4.2544927 c 0,0 -4.034493,1.361534 -6.633493,1.309077 C 11.606132,15.06271 10.484431,13.075353 7.0617333,13.074599 5.0357641,13.074126 2.3445838,14.29017 2.3445838,14.29017 Z"
     id="path910-6"
     inkscape:connector-curvature="0"
     sodipodi:nodetypes="ccasccasc" />
  <path
     style="fill:#80b3ff;fill-opacity:1;stroke:#80b3ff;stroke-width:0.68916911px;stroke-linecap:butt;stroke-linejoin:miter;stroke-opacity:1"
     d="m 2.3445838,20.812354 v -3.973977 c 0,0 3.5185031,-1.461996 6.0438479,-1.449331 3.5986513,0.01798 4.8058653,2.193507 8.4024193,2.150619 2.223204,-0.02642 4.864565,-1.44933 4.864565,-1.44933 v 4.254495 c 0,0 -4.034493,1.361529 -6.633493,1.309074 -3.415791,-0.06905 -4.537492,-2.056361 -7.9601897,-2.057119 -2.0259692,-4.73e-4 -4.7171495,1.215569 -4.7171495,1.215569 z"
     id="path910-9"
     inkscape:connector-curvature="0"
     sodipodi:nodetypes="ccasccasc" />
  <rect
     style="opacity:1;fill:#808080;fill-opacity:1;stroke:none;stroke-width:0.00942501;stroke-linecap:round;stroke-linejoin:miter;stroke-miterlimit:4;stroke-dasharray:none;stroke-dashoffset:0;stroke-opacity:1;paint-order:stroke fill markers"
     id="rect1082"
     width="0.5"
     height="22.748209"
     x="1.4999993"
     y="0.62590456" />
  <use
     x="0"
     y="0"
     xlink:href="#rect1082"
     id="use907"
     transform="translate(20.500001)"
     width="100%"
     height="100%" />
</svg>
