<?xml version="1.0" encoding="UTF-8" standalone="no"?>
<!-- Created with Inkscape (http://www.inkscape.org/) -->

<svg
   xmlns:dc="http://purl.org/dc/elements/1.1/"
   xmlns:cc="http://creativecommons.org/ns#"
   xmlns:rdf="http://www.w3.org/1999/02/22-rdf-syntax-ns#"
   xmlns:svg="http://www.w3.org/2000/svg"
   xmlns="http://www.w3.org/2000/svg"
   xmlns:xlink="http://www.w3.org/1999/xlink"
   xmlns:sodipodi="http://sodipodi.sourceforge.net/DTD/sodipodi-0.dtd"
   xmlns:inkscape="http://www.inkscape.org/namespaces/inkscape"
   id="svg2"
   version="1.1"
   inkscape:version="0.92.3 (2405546, 2018-03-11)"
   width="40"
   height="14"
   sodipodi:docname="xmeter_over.svg"
   inkscape:export-filename="/home/olaf/src/cinelerra-gg/cin5/cinelerra-5.1/plugins/theme_neophyte/data/xmeter_over.png"
   inkscape:export-xdpi="96"
   inkscape:export-ydpi="96">
  <metadata
     id="metadata8">
    <rdf:RDF>
      <cc:Work
         rdf:about="">
        <dc:format>image/svg+xml</dc:format>
        <dc:type
           rdf:resource="http://purl.org/dc/dcmitype/StillImage" />
        <dc:title />
        <dc:date>2018-08-01</dc:date>
        <dc:creator>
          <cc:Agent>
            <dc:title>Olaf</dc:title>
          </cc:Agent>
        </dc:creator>
        <dc:description>2018-08-01: adapted</dc:description>
      </cc:Work>
    </rdf:RDF>
  </metadata>
  <defs
     id="defs6">
    <linearGradient
       inkscape:collect="always"
       xlink:href="#linearGradient3601"
       id="linearGradient2915"
       gradientUnits="userSpaceOnUse"
       gradientTransform="translate(57.677963,6.5084796)"
       x1="-72.677963"
       y1="57.49152"
       x2="-57.677963"
       y2="57.49152" />
    <linearGradient
       id="linearGradient3601">
      <stop
         id="stop3603"
         offset="0"
         style="stop-color:#008000;stop-opacity:1;" />
      <stop
         id="stop3605"
         offset="1"
         style="stop-color:#0bff0b;stop-opacity:1;" />
    </linearGradient>
    <linearGradient
       id="linearGradient75125">
      <stop
         id="stop75121"
         offset="0"
         style="stop-color:#135c36;stop-opacity:1" />
      <stop
         id="stop75123"
         offset="1"
         style="stop-color:#27ae60;stop-opacity:1" />
    </linearGradient>
    <linearGradient
       inkscape:collect="always"
       xlink:href="#linearGradient75125"
       id="linearGradient81055"
       gradientUnits="userSpaceOnUse"
       gradientTransform="matrix(0.50000002,0,0,1,36.338987,6.5084793)"
       x1="-72.677963"
       y1="57.49152"
       x2="-57.677963"
       y2="57.49152" />
    <linearGradient
       id="linearGradient79288">
      <stop
         id="stop79286"
         offset="0"
         style="stop-color:#5c0000;stop-opacity:1" />
      <stop
         id="stop79284"
         offset="1"
         style="stop-color:#e30000;stop-opacity:1" />
    </linearGradient>
    <linearGradient
       inkscape:collect="always"
       xlink:href="#linearGradient79288"
       id="linearGradient81151"
       gradientUnits="userSpaceOnUse"
       gradientTransform="matrix(0.50000002,0,0,1,36.338989,6.5084803)"
       x1="-72.677963"
       y1="57.49152"
       x2="-57.677963"
       y2="57.49152" />
  </defs>
  <sodipodi:namedview
     pagecolor="#ffffff"
     bordercolor="#666666"
     borderopacity="1"
     objecttolerance="10"
     gridtolerance="10"
     guidetolerance="10"
     inkscape:pageopacity="0"
     inkscape:pageshadow="2"
     inkscape:window-width="1280"
     inkscape:window-height="750"
     id="namedview4"
     showgrid="false"
     inkscape:zoom="12.726562"
     inkscape:cx="-6.7745324"
     inkscape:cy="4.434149"
     inkscape:window-x="0"
     inkscape:window-y="25"
     inkscape:window-maximized="1"
     inkscape:current-layer="layer36" />
  <g
     inkscape:groupmode="layer"
     id="layer35"
     inkscape:label="Layer 1"
     style="display:none">
    <g
       transform="matrix(0.28940907,0,0,0.3265645,17.189245,2.9550837)"
       id="text2818"
       style="font-style:normal;font-weight:bold;font-size:40px;font-family:'Bitstream Vera Sans';-inkscape-font-specification:'AlArabiya Bold';fill:#000000;fill-opacity:1;stroke:none">
      <path
         id="path2823"
         d="m -33.728153,-2.1196365 c -2.291682,2.42e-5 -4.069024,0.8463775 -5.332031,2.53906246 -1.263032,1.69272834 -1.894541,4.07553844 -1.894532,7.14843754 -9e-6,3.0599075 0.6315,5.4362065 1.894532,7.1289065 1.263007,1.692714 3.040349,2.539067 5.332031,2.539062 2.304668,5e-6 4.08852,-0.846348 5.351562,-2.539062 1.262997,-1.6927 1.894507,-4.068999 1.894532,-7.1289065 -2.5e-5,-3.0728991 -0.631535,-5.4557092 -1.894532,-7.14843754 -1.263042,-1.69268496 -3.046894,-2.53903826 -5.351562,-2.53906246 m 0,-5.4492188 c 4.687478,2.97e-5 8.359349,1.3411742 11.015625,4.0234375 2.656219,2.68231466 3.984343,6.386738 3.984375,11.1132813 -3.2e-5,4.7135515 -1.328156,8.4114645 -3.984375,11.0937495 -2.656276,2.682293 -6.328147,4.023437 -11.015625,4.023438 -4.674492,-1e-6 -8.346363,-1.341145 -11.015625,-4.023438 -2.656254,-2.682285 -3.984377,-6.380198 -3.984375,-11.0937495 -2e-6,-4.7265433 1.328121,-8.43096664 3.984375,-11.1132813 2.669262,-2.6822633 6.341133,-4.0234078 11.015625,-4.0234375"
         inkscape:connector-curvature="0" />
      <path
         id="path2825"
         d="m -17.634403,-7.0415115 h 7.558594 L -2.3414345,14.481926 5.3734093,-7.0415115 H 12.932003 L 2.1312218,22.118645 H -6.833622 L -17.634403,-7.0415115"
         inkscape:connector-curvature="0" />
      <path
         id="path2827"
         d="m 16.779659,-7.0415115 h 20.292969 v 5.6835937 H 24.299191 V 4.0717697 H 36.310909 V 9.7553635 H 24.299191 v 6.6796875 h 13.203125 v 5.683594 H 16.779659 V -7.0415115"
         inkscape:connector-curvature="0" />
      <path
         id="path2829"
         d="m 54.807003,5.888176 c 1.575505,1.62e-5 2.701806,-0.2929523 3.378906,-0.8789063 0.690086,-0.5859198 1.035138,-1.5494605 1.035157,-2.890625 -1.9e-5,-1.32810366 -0.345071,-2.27862354 -1.035157,-2.85156249 C 57.508809,-1.305811 56.382508,-1.5922691 54.807003,-1.5922928 H 51.642941 V 5.888176 h 3.164062 m -3.164062,5.195312 V 22.118645 H 44.123409 V -7.0415115 h 11.484375 c 3.841127,2.91e-5 6.653624,0.6445597 8.4375,1.9335937 1.79685,1.2890885 2.695286,3.3268468 2.695313,6.1132813 -2.7e-5,1.9271025 -0.468776,3.5091322 -1.40625,4.7460937 -0.924503,1.2369943 -2.324242,2.1484517 -4.199219,2.734375 1.028624,0.2343884 1.946592,0.768242 2.753906,1.6015628 0.820289,0.820323 1.647111,2.070322 2.480469,3.75 l 4.082031,8.28125 h -8.007812 l -3.554688,-7.246094 c -0.716163,-1.458325 -1.445329,-2.454417 -2.1875,-2.988281 -0.729182,-0.533844 -1.705743,-0.800771 -2.929687,-0.800782 h -2.128906"
         inkscape:connector-curvature="0" />
    </g>
  </g>
  <g
     inkscape:groupmode="layer"
     id="layer37"
     inkscape:label="Layer xmeter_green"
     style="display:none">
    <g
       transform="translate(-44,-0.49999905)"
       id="g80943">
      <rect
         transform="rotate(-90)"
         y="6.9802859e-08"
         x="-14.999998"
         height="128"
         width="15"
         id="rect2818"
         style="fill:url(#linearGradient2915);fill-opacity:1;stroke:none" />
      <path
         inkscape:connector-curvature="0"
         style="fill:#cccccc;fill-opacity:1;stroke:none"
         d="M 128,15 H 127 2.0338985e-7 V 14 H 127 V -1.6949144e-8 h 1 V 14 Z"
         id="path3599" />
      <path
         inkscape:connector-curvature="0"
         id="rect3594"
         d="M 0,0 H 1 128 V 1 H 1 V 15 H 0 V 1 Z"
         style="fill:#000000;fill-opacity:1;stroke:none" />
      <rect
         transform="matrix(0,1,1,0,0,0)"
         y="-3.1889343e-07"
         x="-6.2963869e-07"
         height="128"
         width="7.5"
         id="rect2818-5"
         style="fill:url(#linearGradient81055);fill-opacity:1;stroke:none;stroke-width:0.70710677" />
      <use
         height="100%"
         width="100%"
         transform="rotate(-180,64,7.499999)"
         id="use75127"
         xlink:href="#rect2818-5"
         y="0"
         x="0" />
    </g>
    <text
       xml:space="preserve"
       style="font-style:normal;font-variant:normal;font-weight:normal;font-stretch:normal;font-size:18.69485474px;line-height:29.21071053px;font-family:Andika;-inkscape-font-specification:'Andika, Normal';font-variant-ligatures:normal;font-variant-caps:normal;font-variant-numeric:normal;font-feature-settings:normal;text-align:start;letter-spacing:0px;word-spacing:0px;writing-mode:lr-tb;text-anchor:start;fill:#5c0000;fill-opacity:1;stroke:none;stroke-width:1.16842842"
       x="-0.50209415"
       y="32.195614"
       id="text79969"
       inkscape:export-filename="/home/olaf/src/cinelerra-gg/cin5/cinelerra-5.1/plugins/theme_neophyte/data/over.png"
       inkscape:export-xdpi="96"
       inkscape:export-ydpi="96"
       transform="scale(1.0499751,0.95240353)"><tspan
         sodipodi:role="line"
         id="tspan79967"
         x="-0.50209415"
         y="32.195614"
         style="font-style:normal;font-variant:normal;font-weight:normal;font-stretch:normal;font-size:18.69485474px;font-family:Andika;-inkscape-font-specification:'Andika, Normal';font-variant-ligatures:normal;font-variant-caps:normal;font-variant-numeric:normal;font-feature-settings:normal;text-align:start;writing-mode:lr-tb;text-anchor:start;fill:#5c0000;fill-opacity:1;stroke-width:1.16842842">over</tspan></text>
  </g>
  <g
     inkscape:groupmode="layer"
     id="layer36"
     inkscape:label="Layer 2">
    <g
       transform="matrix(0.3125,0,0,0.93333367,0,-2.0583332e-6)"
       id="g81061">
      <rect
         transform="matrix(0,1,1,0,0,0)"
         y="4.9774172e-07"
         x="2.1754151e-06"
         height="128"
         width="7.5"
         id="rect2818-5-8"
         style="fill:url(#linearGradient81151);fill-opacity:1;stroke:none;stroke-width:0.70710677" />
      <use
         height="100%"
         width="100%"
         transform="rotate(-180,64,7.4999995)"
         id="use75127-4"
         xlink:href="#rect2818-5-8"
         y="0"
         x="0" />
    </g>
    <rect
       style="opacity:1;fill:none;fill-opacity:1;fill-rule:evenodd;stroke:#e30000;stroke-width:0.48819804;stroke-linejoin:round;stroke-miterlimit:4;stroke-dasharray:none;stroke-dashoffset:0;stroke-opacity:1"
       id="rect80631"
       width="39.511799"
       height="13.511802"
       x="0.24410057"
       y="0.24409914" />
    <text
       xml:space="preserve"
       style="font-style:normal;font-variant:normal;font-weight:normal;font-stretch:normal;font-size:18.39359474px;line-height:28.73999214px;font-family:Andika;-inkscape-font-specification:'Andika, Normal';font-variant-ligatures:normal;font-variant-caps:normal;font-variant-numeric:normal;font-feature-settings:normal;text-align:start;letter-spacing:0px;word-spacing:0px;writing-mode:lr-tb;text-anchor:start;fill:#ffcc00;fill-opacity:1;stroke:none;stroke-width:1.14959967"
       x="0.19855969"
       y="11.78937"
       id="text79969-5"
       inkscape:export-filename="/home/olaf/src/cinelerra-gg/cin5/cinelerra-5.1/plugins/theme_neophyte/data/over.png"
       inkscape:export-xdpi="96"
       inkscape:export-ydpi="96"
       transform="scale(1.0330552,0.96800251)"><tspan
         sodipodi:role="line"
         id="tspan79967-4"
         x="0.19855969"
         y="11.78937"
         style="font-style:normal;font-variant:normal;font-weight:normal;font-stretch:normal;font-size:18.39359474px;font-family:Andika;-inkscape-font-specification:'Andika, Normal';font-variant-ligatures:normal;font-variant-caps:normal;font-variant-numeric:normal;font-feature-settings:normal;text-align:start;writing-mode:lr-tb;text-anchor:start;fill:#ffcc00;fill-opacity:1;stroke-width:1.14959967">over</tspan></text>
  </g>
</svg>
