<?xml version="1.0" encoding="UTF-8" standalone="no"?>
<!-- Created with Inkscape (http://www.inkscape.org/) -->

<svg
   xmlns:dc="http://purl.org/dc/elements/1.1/"
   xmlns:cc="http://creativecommons.org/ns#"
   xmlns:rdf="http://www.w3.org/1999/02/22-rdf-syntax-ns#"
   xmlns:svg="http://www.w3.org/2000/svg"
   xmlns="http://www.w3.org/2000/svg"
   xmlns:sodipodi="http://sodipodi.sourceforge.net/DTD/sodipodi-0.dtd"
   xmlns:inkscape="http://www.inkscape.org/namespaces/inkscape"
   id="svg2"
   version="1.1"
   inkscape:version="0.47pre4 r22446"
   width="24"
   height="24"
   sodipodi:docname="camera.svg">
  <metadata
     id="metadata8">
    <rdf:RDF>
      <cc:Work
         rdf:about="">
        <dc:format>image/svg+xml</dc:format>
        <dc:type
           rdf:resource="http://purl.org/dc/dcmitype/StillImage" />
        <dc:title />
      </cc:Work>
    </rdf:RDF>
  </metadata>
  <defs
     id="defs6">
    <marker
       inkscape:stockid="TriangleInS"
       orient="auto"
       refY="0.0"
       refX="0.0"
       id="TriangleInS"
       style="overflow:visible">
      <path
         id="path3735"
         d="M 5.77,0.0 L -2.88,5.0 L -2.88,-5.0 L 5.77,0.0 z "
         style="fill-rule:evenodd;stroke:#000000;stroke-width:1.0pt;marker-start:none"
         transform="scale(-0.2)" />
    </marker>
    <marker
       inkscape:stockid="TriangleOutM"
       orient="auto"
       refY="0.0"
       refX="0.0"
       id="TriangleOutM"
       style="overflow:visible">
      <path
         id="path3741"
         d="M 5.77,0.0 L -2.88,5.0 L -2.88,-5.0 L 5.77,0.0 z "
         style="fill-rule:evenodd;stroke:#000000;stroke-width:1.0pt;marker-start:none"
         transform="scale(0.4)" />
    </marker>
    <marker
       inkscape:stockid="TriangleOutS"
       orient="auto"
       refY="0.0"
       refX="0.0"
       id="TriangleOutS"
       style="overflow:visible">
      <path
         id="path3744"
         d="M 5.77,0.0 L -2.88,5.0 L -2.88,-5.0 L 5.77,0.0 z "
         style="fill-rule:evenodd;stroke:#000000;stroke-width:1.0pt;marker-start:none"
         transform="scale(0.2)" />
    </marker>
    <marker
       inkscape:stockid="TriangleInM"
       orient="auto"
       refY="0.0"
       refX="0.0"
       id="TriangleInM"
       style="overflow:visible">
      <path
         id="path3732"
         d="M 5.77,0.0 L -2.88,5.0 L -2.88,-5.0 L 5.77,0.0 z "
         style="fill-rule:evenodd;stroke:#000000;stroke-width:1.0pt;marker-start:none"
         transform="scale(-0.4)" />
    </marker>
    <marker
       inkscape:stockid="EmptyTriangleInM"
       orient="auto"
       refY="0.0"
       refX="0.0"
       id="EmptyTriangleInM"
       style="overflow:visible">
      <path
         id="path3750"
         d="M 5.77,0.0 L -2.88,5.0 L -2.88,-5.0 L 5.77,0.0 z "
         style="fill-rule:evenodd;fill:#FFFFFF;stroke:#000000;stroke-width:1.0pt;marker-start:none"
         transform="scale(-0.4) translate(-4.5,0)" />
    </marker>
    <marker
       inkscape:stockid="Arrow2Mstart"
       orient="auto"
       refY="0.0"
       refX="0.0"
       id="Arrow2Mstart"
       style="overflow:visible">
      <path
         id="path3619"
         style="font-size:12.0;fill-rule:evenodd;stroke-width:0.62500000;stroke-linejoin:round"
         d="M 8.7185878,4.0337352 L -2.2072895,0.016013256 L 8.7185884,-4.0017078 C 6.9730900,-1.6296469 6.9831476,1.6157441 8.7185878,4.0337352 z "
         transform="scale(0.6) translate(0,0)" />
    </marker>
    <inkscape:perspective
       sodipodi:type="inkscape:persp3d"
       inkscape:vp_x="0 : 0.5 : 1"
       inkscape:vp_y="0 : 1000 : 0"
       inkscape:vp_z="1 : 0.5 : 1"
       inkscape:persp3d-origin="0.5 : 0.33333333 : 1"
       id="perspective10" />
  </defs>
  <sodipodi:namedview
     pagecolor="#ffffff"
     bordercolor="#ded9b3"
     borderopacity="1"
     objecttolerance="10"
     gridtolerance="10"
     guidetolerance="10"
     inkscape:pageopacity="0"
     inkscape:pageshadow="2"
     inkscape:window-width="1280"
     inkscape:window-height="749"
     id="namedview4"
     showgrid="false"
     inkscape:zoom="8.3015211"
     inkscape:cx="11.954099"
     inkscape:cy="14.209074"
     inkscape:window-x="0"
     inkscape:window-y="25"
     inkscape:window-maximized="1"
     inkscape:current-layer="svg2" />
  <g
     id="g2825"
     transform="matrix(0.9824418,0,0,0.9851252,0.28514194,1.067125)">
    <path
       id="rect5208"
       d="m 11.5,3.625 -2.4375,3.03125 0.75,0.625 1.15625,-1.40625 0,4.71875 0,0.4375 -4.9375,0 L 7.4375,9.875 6.8125,9.125 3.78125,11.53125 6.8125,14 l 0.625,-0.75 -1.40625,-1.1875 4.9375,0 0,0.1875 0,4.71875 -1.15625,-1.40625 -0.75,0.625 2.4375,3.03125 2.4375,-3.03125 -0.75,-0.625 L 12,16.96875 12,12.25 l 0,-0.1875 5,0 -1.40625,1.1875 0.625,0.75 3,-2.46875 -3,-2.40625 -0.625,0.75 1.40625,1.15625 -5,0 0,-0.4375 0,-4.71875 1.1875,1.40625 0.75,-0.625 L 11.5,3.625 z"
       style="fill:#efeddb;fill-opacity:1;stroke:none" />
    <path
       sodipodi:nodetypes="ccccccc"
       id="rect5196"
       d="m 15.00635,2.9771596 0,5.0017221 5.060852,0 0,-0.9887956 -4.047362,0 0,-4.0129265 -1.01349,0 z"
       style="fill:#efeddb;fill-opacity:1;stroke:none" />
  </g>
</svg>
