<?xml version="1.0" encoding="UTF-8" standalone="no"?>
<!-- Created with Inkscape (http://www.inkscape.org/) -->

<svg
   xmlns:dc="http://purl.org/dc/elements/1.1/"
   xmlns:cc="http://creativecommons.org/ns#"
   xmlns:rdf="http://www.w3.org/1999/02/22-rdf-syntax-ns#"
   xmlns:svg="http://www.w3.org/2000/svg"
   xmlns="http://www.w3.org/2000/svg"
   xmlns:sodipodi="http://sodipodi.sourceforge.net/DTD/sodipodi-0.dtd"
   xmlns:inkscape="http://www.inkscape.org/namespaces/inkscape"
   id="svg2"
   version="1.1"
   inkscape:version="0.47pre4 r22446"
   width="14"
   height="40"
   sodipodi:docname="ymeter_over.png">
  <metadata
     id="metadata8">
    <rdf:RDF>
      <cc:Work
         rdf:about="">
        <dc:format>image/svg+xml</dc:format>
        <dc:type
           rdf:resource="http://purl.org/dc/dcmitype/StillImage" />
        <dc:title></dc:title>
      </cc:Work>
    </rdf:RDF>
  </metadata>
  <defs
     id="defs6">
    <inkscape:perspective
       sodipodi:type="inkscape:persp3d"
       inkscape:vp_x="0 : 0.5 : 1"
       inkscape:vp_y="0 : 1000 : 0"
       inkscape:vp_z="1 : 0.5 : 1"
       inkscape:persp3d-origin="0.5 : 0.33333333 : 1"
       id="perspective10" />
    <inkscape:perspective
       sodipodi:type="inkscape:persp3d"
       inkscape:vp_x="0 : 0.5 : 1"
       inkscape:vp_y="0 : 1000 : 0"
       inkscape:vp_z="1 : 0.5 : 1"
       inkscape:persp3d-origin="0.5 : 0.33333333 : 1"
       id="perspective10-4" />
    <inkscape:perspective
       id="perspective10-8"
       inkscape:persp3d-origin="0.5 : 0.33333333 : 1"
       inkscape:vp_z="1 : 0.5 : 1"
       inkscape:vp_y="0 : 1000 : 0"
       inkscape:vp_x="0 : 0.5 : 1"
       sodipodi:type="inkscape:persp3d" />
  </defs>
  <sodipodi:namedview
     pagecolor="#ffffff"
     bordercolor="#ded9b3"
     borderopacity="1"
     objecttolerance="10"
     gridtolerance="10"
     guidetolerance="10"
     inkscape:pageopacity="0"
     inkscape:pageshadow="2"
     inkscape:window-width="640"
     inkscape:window-height="483"
     id="namedview4"
     showgrid="false"
     inkscape:zoom="5.9"
     inkscape:cx="7"
     inkscape:cy="20"
     inkscape:window-x="0"
     inkscape:window-y="25"
     inkscape:window-maximized="0"
     inkscape:current-layer="svg2" />
  <g
     style="font-size:40px;font-style:normal;font-weight:bold;fill:#000000;fill-opacity:1;stroke:none;font-family:Bitstream Vera Sans;-inkscape-font-specification:AlArabiya Bold"
     id="text2818"
     transform="matrix(0,-0.28940907,0.3265645,0,4.3114546,24.160421)">
    <path
       d="m -33.728153,-2.1196365 c -2.291682,2.42e-5 -4.069024,0.8463775 -5.332031,2.53906246 -1.263032,1.69272834 -1.894541,4.07553844 -1.894532,7.14843754 -9e-6,3.0599075 0.6315,5.4362065 1.894532,7.1289065 1.263007,1.692714 3.040349,2.539067 5.332031,2.539062 2.304668,5e-6 4.08852,-0.846348 5.351562,-2.539062 1.262997,-1.6927 1.894507,-4.068999 1.894532,-7.1289065 -2.5e-5,-3.0728991 -0.631535,-5.4557092 -1.894532,-7.14843754 -1.263042,-1.69268496 -3.046894,-2.53903826 -5.351562,-2.53906246 m 0,-5.4492188 c 4.687478,2.97e-5 8.359349,1.3411742 11.015625,4.0234375 2.656219,2.68231466 3.984343,6.386738 3.984375,11.1132813 -3.2e-5,4.7135515 -1.328156,8.4114645 -3.984375,11.0937495 -2.656276,2.682293 -6.328147,4.023437 -11.015625,4.023438 -4.674492,-1e-6 -8.346363,-1.341145 -11.015625,-4.023438 -2.656254,-2.682285 -3.984377,-6.380198 -3.984375,-11.0937495 -2e-6,-4.7265433 1.328121,-8.43096664 3.984375,-11.1132813 2.669262,-2.6822633 6.341133,-4.0234078 11.015625,-4.0234375"
       id="path2823" />
    <path
       d="m -17.634403,-7.0415115 7.558594,0 7.7343745,21.5234375 7.7148438,-21.5234375 7.5585937,0 -10.8007812,29.1601565 -8.9648438,0 -10.800781,-29.1601565"
       id="path2825" />
    <path
       d="m 16.779659,-7.0415115 20.292969,0 0,5.6835937 -12.773437,0 0,5.4296875 12.011718,0 0,5.6835938 -12.011718,0 0,6.6796875 13.203125,0 0,5.683594 -20.722657,0 0,-29.1601565"
       id="path2827" />
    <path
       d="m 54.807003,5.888176 c 1.575505,1.62e-5 2.701806,-0.2929523 3.378906,-0.8789063 0.690086,-0.5859198 1.035138,-1.5494605 1.035157,-2.890625 -1.9e-5,-1.32810366 -0.345071,-2.27862354 -1.035157,-2.85156249 -0.6771,-0.57289321 -1.803401,-0.85935131 -3.378906,-0.85937501 l -3.164062,0 0,7.4804688 3.164062,0 m -3.164062,5.195312 0,11.035157 -7.519532,0 0,-29.1601565 11.484375,0 c 3.841127,2.91e-5 6.653624,0.6445597 8.4375,1.9335937 1.79685,1.2890885 2.695286,3.3268468 2.695313,6.1132813 -2.7e-5,1.9271025 -0.468776,3.5091322 -1.40625,4.7460937 -0.924503,1.2369943 -2.324242,2.1484517 -4.199219,2.734375 1.028624,0.2343884 1.946592,0.768242 2.753906,1.6015628 0.820289,0.820323 1.647111,2.070322 2.480469,3.75 l 4.082031,8.28125 -8.007812,0 -3.554688,-7.246094 c -0.716163,-1.458325 -1.445329,-2.454417 -2.1875,-2.988281 -0.729182,-0.533844 -1.705743,-0.800771 -2.929687,-0.800782 l -2.128906,0"
       id="path2829" />
  </g>
</svg>
