<?xml version="1.0" encoding="UTF-8" standalone="no"?>
<!-- Created with Inkscape (http://www.inkscape.org/) -->

<svg
   xmlns:dc="http://purl.org/dc/elements/1.1/"
   xmlns:cc="http://creativecommons.org/ns#"
   xmlns:rdf="http://www.w3.org/1999/02/22-rdf-syntax-ns#"
   xmlns:svg="http://www.w3.org/2000/svg"
   xmlns="http://www.w3.org/2000/svg"
   xmlns:sodipodi="http://sodipodi.sourceforge.net/DTD/sodipodi-0.dtd"
   xmlns:inkscape="http://www.inkscape.org/namespaces/inkscape"
   id="svg2"
   version="1.1"
   inkscape:version="0.48.4 r9939"
   width="24"
   height="24"
   sodipodi:docname="ruler.svg">
  <metadata
     id="metadata8">
    <rdf:RDF>
      <cc:Work
         rdf:about="">
        <dc:format>image/svg+xml</dc:format>
        <dc:type
           rdf:resource="http://purl.org/dc/dcmitype/StillImage" />
        <dc:title />
      </cc:Work>
    </rdf:RDF>
  </metadata>
  <defs
     id="defs6">
    <inkscape:perspective
       sodipodi:type="inkscape:persp3d"
       inkscape:vp_x="0 : 12 : 1"
       inkscape:vp_y="0 : 1000 : 0"
       inkscape:vp_z="24 : 12 : 1"
       inkscape:persp3d-origin="12 : 8 : 1"
       id="perspective3006" />
  </defs>
  <sodipodi:namedview
     pagecolor="#ffffff"
     bordercolor="#70002d"
     borderopacity="1"
     objecttolerance="10"
     gridtolerance="10"
     guidetolerance="10"
     inkscape:pageopacity="0"
     inkscape:pageshadow="2"
     inkscape:window-width="1321"
     inkscape:window-height="744"
     id="namedview4"
     showgrid="false"
     inkscape:zoom="9.8333333"
     inkscape:cx="-33.033745"
     inkscape:cy="14.876367"
     inkscape:window-x="45"
     inkscape:window-y="24"
     inkscape:window-maximized="1"
     inkscape:current-layer="svg2" />
  <path
     style="fill:#ffd5e5;fill-opacity:1;stroke:none"
     d="m 11.826371,2.0307202 c -1.9831377,0 -3.5729782,1.6248692 -3.5729782,3.6080079 0,1.1419406 0.5402927,2.1496658 1.3661389,2.8023366 -2.6873283,4.7835383 -3.1496566,9.5434043 -4.5537964,14.3269433 0,0 0.9016831,-1.558264 2.0250265,-3.530615 1.8015121,-3.163074 4.1731032,-7.391133 4.3099852,-7.964973 0.136882,-0.57384 0.507259,-0.947113 0.700584,0 0.193325,0.947114 6.415618,11.495588 6.415618,11.495588 -1.400058,-4.769633 -1.852212,-9.522282 -4.518767,-14.2919141 0.861511,-0.6511946 1.436197,-1.6748965 1.436197,-2.8373658 0,-1.9831387 -1.62487,-3.6080079 -3.608008,-3.6080079 z m 0,1.9266062 c 0.928613,0 1.681402,0.7527892 1.681402,1.6814017 0,0.9286125 -0.752789,1.6814018 -1.681402,1.6814018 -0.928612,0 -1.681401,-0.7527893 -1.681401,-1.6814018 0,-0.9286125 0.752789,-1.6814017 1.681401,-1.6814017 z"
     id="path3802"
     inkscape:connector-curvature="0"
     sodipodi:nodetypes="ssccszzccsssssss" />
</svg>
